#N canvas 215 94 1209 737 10;
#X obj 26 19 tgl 15 0 empty empty gate 17 7 0 10 -262144 -1 -1 0 1
;
#X obj 885 247 vsl 15 128 0 1 0 1 empty empty position 0 -9 0 10 -262144
-1 -1 7300 1;
#X obj 157 35 vsl 15 128 0 1 0 1 empty empty contour 0 -9 0 10 -262144
-1 -1 2000 1;
#X obj 103 33 vsl 15 128 -1 1 0 1 empty empty pitch 0 -9 0 10 -262144
-1 -1 7700 1;
#X obj 281 39 vsl 15 128 0 1 0 1 empty empty bow_level 0 -9 0 10 -262144
-1 -1 7900 1;
#X obj 317 54 vsl 15 128 0 1 0 1 empty empty bow_timbre 0 -9 0 10 -262144
-1 -1 9300 1;
#X obj 746 182 vsl 15 128 0 3 0 1 empty empty resonator 0 -9 0 10 -262144
-1 -1 0 1;
#X obj 782 194 vsl 15 128 0 1 0 1 empty empty geometry 0 -9 0 10 -262144
-1 -1 5100 1;
#X obj 817 207 vsl 15 128 0 1 0 1 empty empty brightness 0 -9 0 10
-262144 -1 -1 7500 1;
#X obj 36 336 tgl 15 1 empty empty bypass 17 7 0 10 -262144 -1 -1 0
1;
#X msg 825 446 position \$1;
#X msg 102 205 pitch \$1;
#X obj 352 635 dac~;
#X msg 32 369 bypass \$1;
#X obj 86 436 adc~;
#X obj 468 579 vsl 15 128 0 1 0 1 empty empty vol 0 -9 0 10 -262144
-1 -1 12700 1;
#X obj 356 571 *~;
#X obj 381 569 *~;
#X msg 815 83 \; pd dsp 1;
#X obj 815 60 loadbang;
#X obj 354 523 lmnts~;
#X msg 155 232 contour \$1;
#X msg 272 208 bow_level \$1;
#X msg 300 242 bow_timbre \$1;
#X obj 402 42 vsl 15 128 0 1 0 1 empty empty blow_level 0 -9 0 10 -258113
-1 -258113 0 1;
#X obj 445 52 vsl 15 128 0 1 0 1 empty empty blow_flow 0 -9 0 10 -258113
-33289 -258113 4200 1;
#X msg 402 206 blow_level \$1;
#X obj 491 65 vsl 15 128 0 1 0 1 empty empty blow_timbre 0 -9 0 10
-258113 -1 -258113 5900 1;
#X msg 454 270 blow_timbre \$1;
#X msg 434 240 blow_flow \$1;
#X obj 569 33 vsl 15 128 0 1 0 1 empty empty strike_level 0 -9 0 10
-4032 -1 -4032 6200 1;
#X obj 612 43 vsl 15 128 0 1 0 1 empty empty blow_mallet 0 -9 0 10
-4032 -1 -4032 1400 1;
#X obj 658 56 vsl 15 128 0 1 0 1 empty empty strike_timbre 0 -9 0 10
-4032 -1 -4032 6000 1;
#X msg 569 197 strike_level \$1;
#X msg 601 231 strike_mallet \$1;
#X msg 621 261 strike_timbre \$1;
#X msg 662 320 resonator \$1;
#X msg 713 348 geometry \$1;
#X msg 791 372 brightness \$1;
#X obj 850 224 vsl 15 128 0 1 0 1 empty empty damping 0 -9 0 10 -262144
-1 -1 8700 1;
#X msg 807 397 damping \$1;
#X obj 916 277 vsl 15 128 0 1 0 1 empty empty space 0 -9 0 10 -262144
-1 -1 4900 1;
#X obj 1010 314 vsl 15 128 0 1 0 1 empty empty mod_pitch 0 -9 0 10
-262144 -1 -1 0 1;
#X msg 856 476 space \$1;
#X msg 950 513 mod_pitch \$1;
#X obj 1044 335 vsl 15 128 0 1 0 1 empty empty mod_depth 0 -9 0 10
-262144 -1 -1 0 1;
#X msg 986 543 mod_depth \$1;
#X obj 1118 487 tgl 15 1 empty empty easter_egg 17 7 0 10 -262144 -1
-1 0 1;
#X msg 1063 520 easter_egg \$1;
#X msg 26 223 gate \$1;
#X obj 1160 514 vsl 15 128 0 32768 0 1 empty empty seed 0 -9 0 10 -262144
-1 -1 0 1;
#X msg 1160 663 seed \$1;
#X connect 0 0 49 0;
#X connect 1 0 10 0;
#X connect 2 0 21 0;
#X connect 3 0 11 0;
#X connect 4 0 22 0;
#X connect 5 0 23 0;
#X connect 6 0 36 0;
#X connect 7 0 37 0;
#X connect 8 0 38 0;
#X connect 9 0 13 0;
#X connect 10 0 20 0;
#X connect 11 0 20 0;
#X connect 13 0 20 0;
#X connect 14 0 20 0;
#X connect 14 1 20 1;
#X connect 15 0 16 1;
#X connect 15 0 17 1;
#X connect 16 0 12 0;
#X connect 17 0 12 1;
#X connect 17 0 16 0;
#X connect 19 0 18 0;
#X connect 20 0 16 0;
#X connect 20 1 17 0;
#X connect 21 0 20 0;
#X connect 22 0 20 0;
#X connect 23 0 20 0;
#X connect 24 0 26 0;
#X connect 25 0 29 0;
#X connect 26 0 20 0;
#X connect 27 0 28 0;
#X connect 28 0 20 0;
#X connect 29 0 20 0;
#X connect 30 0 33 0;
#X connect 31 0 34 0;
#X connect 32 0 35 0;
#X connect 33 0 20 0;
#X connect 34 0 20 0;
#X connect 35 0 20 0;
#X connect 36 0 20 0;
#X connect 37 0 20 0;
#X connect 38 0 20 0;
#X connect 39 0 40 0;
#X connect 40 0 20 0;
#X connect 41 0 43 0;
#X connect 42 0 44 0;
#X connect 43 0 20 0;
#X connect 44 0 20 0;
#X connect 45 0 46 0;
#X connect 46 0 20 0;
#X connect 47 0 48 0;
#X connect 48 0 20 0;
#X connect 49 0 20 0;
#X connect 50 0 51 0;
#X connect 51 0 20 0;
