#N canvas 592 501 1023 684 10;
#X obj 211 85 oscparse;
#X obj 211 106 list trim;
#X obj 210 61 netreceive -b -u 9002;
#X obj 211 153 route t3d;
#X obj 209 194 route tch0 control;
#N canvas 853 875 981 417 handleTouch 0;
#X obj 326 17 inlet tch;
#X obj 327 112 route 0 1 2 3 4 5 6 7 8 9 10 11 12 13 14 15;
#X obj 86 309 outlet;
#X obj 139 309 outlet;
#X obj 192 309 outlet;
#X obj 239 309 outlet;
#X obj 289 309 outlet;
#X obj 337 309 outlet;
#X obj 396 310 outlet;
#X obj 449 310 outlet;
#X obj 502 310 outlet;
#X obj 549 310 outlet;
#X obj 599 310 outlet;
#X obj 647 310 outlet;
#X obj 701 311 outlet;
#X obj 748 311 outlet;
#X obj 798 311 outlet;
#X obj 846 311 outlet, f 71;
#X connect 0 0 1 0;
#X connect 1 0 2 0;
#X connect 1 1 3 0;
#X connect 1 2 4 0;
#X connect 1 3 5 0;
#X connect 1 4 6 0;
#X connect 1 5 7 0;
#X connect 1 6 8 0;
#X connect 1 7 9 0;
#X connect 1 8 10 0;
#X connect 1 9 11 0;
#X connect 1 10 12 0;
#X connect 1 11 13 0;
#X connect 1 12 14 0;
#X connect 1 13 15 0;
#X connect 1 14 16 0;
#X connect 1 15 17 0;
#X restore 112 234 pd handleTouch, f 46;
#X obj 189 540 *~;
#X obj 360 451 vsl 15 128 0 1 0 1 empty empty empty 0 -9 0 10 -262144
-1 -1 9800 1;
#X obj 236 623 dac~;
#X obj 179 484 *~ 0.5;
#X obj 147 324 voice;
#X obj 192 325 voice;
#X obj 232 325 voice;
#X obj 277 326 voice;
#X obj 670 332 s osc-shape;
#X obj 755 333 s osc-colour;
#X obj 678 143 vsl 15 128 0 1 0 1 empty empty shape 0 -9 0 10 -262144
-1 -1 5800 1;
#X obj 764 146 vsl 15 128 0 1 0 1 empty empty colour 0 -9 0 10 -262144
-1 -1 5100 1;
#X connect 0 0 1 0;
#X connect 1 0 3 0;
#X connect 2 0 0 0;
#X connect 3 0 4 0;
#X connect 4 0 5 0;
#X connect 5 0 10 0;
#X connect 5 1 11 0;
#X connect 5 2 12 0;
#X connect 5 3 13 0;
#X connect 6 0 8 0;
#X connect 6 0 8 1;
#X connect 7 0 6 1;
#X connect 9 0 6 0;
#X connect 10 0 9 0;
#X connect 11 0 9 0;
#X connect 12 0 9 0;
#X connect 13 0 9 0;
#X connect 16 0 14 0;
#X connect 17 0 15 0;
