#N canvas 487 542 1023 684 10;
#X obj 139 46 inlet tch;
#X obj 139 88 unpack f f f f;
#X obj 109 502 outlet~;
#X obj 107 391 *~;
#X obj 410 141 sig~;
#X obj 410 184 lop~ 50;
#X text 512 238 timbre;
#X text 407 104 pressure;
#X text 41 129 pitch;
#X obj 46 164 * 128;
#X obj 46 192 + 8252;
#X obj 107 343 brds~;
#X msg 80 269 pitch \$1;
#X msg 361 298 timbre \$1;
#X obj 392 261 expr ($f1 + 1) / 2;
#X obj 222 160 r osc-shape;
#X msg 221 193 shape \$1;
#X obj 136 159 r osc-colour;
#X msg 136 194 colour \$1;
#X connect 0 0 1 0;
#X connect 1 1 14 0;
#X connect 1 2 4 0;
#X connect 1 3 9 0;
#X connect 3 0 2 0;
#X connect 4 0 5 0;
#X connect 5 0 3 1;
#X connect 9 0 10 0;
#X connect 10 0 12 0;
#X connect 11 0 3 0;
#X connect 12 0 11 0;
#X connect 13 0 11 0;
#X connect 14 0 13 0;
#X connect 15 0 16 0;
#X connect 16 0 11 0;
#X connect 17 0 18 0;
#X connect 18 0 11 0;
