#N canvas 53 352 733 577 10;
#X obj 178 134 sel \$1;
#X obj 233 327 s p\$1k\$2;
#X obj 63 71 r knob\$2;
#X obj 98 336 v p\$1k\$2;
#X obj 115 248 knobpassthru;
#X obj 208 214 v p\$1k\$2;
#X obj 86 221 spigot 0;
#X msg 147 190 1;
#X obj 169 104 t f b;
#X msg 130 153 0;
#X obj 178 159 t b b b;
#X obj 168 75 r knob-page-sel;
#X obj 158 35 r disable-all-in;
#X obj 123 285 t f f;
#X text 275 105 if this is the selected page \, first recall the stored
value then begin checking knob against the stored value \, when it
passes through stored value disable the lock;
#X connect 0 0 10 0;
#X connect 2 0 6 0;
#X connect 4 0 13 0;
#X connect 5 0 4 2;
#X connect 5 0 1 0;
#X connect 6 0 4 0;
#X connect 7 0 6 1;
#X connect 8 0 0 0;
#X connect 8 1 9 0;
#X connect 9 0 6 1;
#X connect 10 0 7 0;
#X connect 10 1 4 1;
#X connect 10 2 5 0;
#X connect 11 0 8 0;
#X connect 12 0 9 0;
#X connect 13 0 3 0;
#X connect 13 1 1 0;
