#N canvas 6 50 898 555 10;
#X obj 152 170 textfile;
#X msg 182 113 rewind;
#X obj 145 55 bng 15 250 50 0 empty empty empty 17 7 0 10 -262144 -1
-1;
#X obj 145 77 t b b b;
#X obj 126 277 v p1k1;
#X obj 126 302 s p1k1;
#X obj 126 246 t b f;
#X obj 156 334 t b f;
#X obj 189 241 t b f;
#X obj 220 328 t b f;
#X obj 156 365 v p1k2;
#X obj 156 390 s p1k2;
#X obj 189 272 v p1k3;
#X obj 189 297 s p1k3;
#X obj 220 359 v p1k4;
#X obj 220 384 s p1k4;
#X obj 126 214 unpack 0 0 0 0 0 0 0 0 0 0 0 0 0 0 0 0, f 66;
#X obj 251 247 t b f;
#X obj 281 335 t b f;
#X obj 314 242 t b f;
#X obj 345 329 t b f;
#X obj 251 278 v p2k1;
#X obj 281 366 v p2k2;
#X obj 281 391 s p2k2;
#X obj 314 273 v p2k3;
#X obj 345 360 v p2k4;
#X obj 345 385 s p2k4;
#X obj 314 298 s p2k3;
#X obj 251 303 s p2k1;
#X obj 380 241 t b f;
#X obj 410 329 t b f;
#X obj 443 236 t b f;
#X obj 474 323 t b f;
#X obj 505 242 t b f;
#X obj 535 330 t b f;
#X obj 568 237 t b f;
#X obj 599 324 t b f;
#X obj 380 272 v p3k1;
#X obj 380 297 s p3k1;
#X obj 410 360 v p3k2;
#X obj 410 385 s p3k2;
#X obj 443 267 v p3k3;
#X obj 443 292 s p3k3;
#X obj 474 354 v p3k4;
#X obj 474 379 s p3k4;
#X obj 505 273 v p4k1;
#X obj 504 297 s p4k1;
#X obj 535 361 v p4k2;
#X obj 535 385 s p4k2;
#X obj 568 268 v p4k3;
#X obj 568 293 s p4k3;
#X obj 599 355 v p4k4;
#X obj 599 380 s p4k4;
#X msg 245 105 read ../pagevals.txt;
#X obj 145 31 inlet;
#X connect 0 0 16 0;
#X connect 1 0 0 0;
#X connect 2 0 3 0;
#X connect 3 0 0 0;
#X connect 3 1 1 0;
#X connect 3 2 53 0;
#X connect 4 0 5 0;
#X connect 6 0 4 0;
#X connect 6 1 4 0;
#X connect 7 0 10 0;
#X connect 7 1 10 0;
#X connect 8 0 12 0;
#X connect 8 1 12 0;
#X connect 9 0 14 0;
#X connect 9 1 14 0;
#X connect 10 0 11 0;
#X connect 12 0 13 0;
#X connect 14 0 15 0;
#X connect 16 0 6 0;
#X connect 16 1 7 0;
#X connect 16 2 8 0;
#X connect 16 3 9 0;
#X connect 16 4 17 0;
#X connect 16 5 18 0;
#X connect 16 6 19 0;
#X connect 16 7 20 0;
#X connect 16 8 29 0;
#X connect 16 9 30 0;
#X connect 16 10 31 0;
#X connect 16 11 32 0;
#X connect 16 12 33 0;
#X connect 16 13 34 0;
#X connect 16 14 35 0;
#X connect 16 15 36 0;
#X connect 17 0 21 0;
#X connect 17 1 21 0;
#X connect 18 0 22 0;
#X connect 18 1 22 0;
#X connect 19 0 24 0;
#X connect 19 1 24 0;
#X connect 20 0 25 0;
#X connect 20 1 25 0;
#X connect 21 0 28 0;
#X connect 22 0 23 0;
#X connect 24 0 27 0;
#X connect 25 0 26 0;
#X connect 29 0 37 0;
#X connect 29 1 37 0;
#X connect 30 0 39 0;
#X connect 30 1 39 0;
#X connect 31 0 41 0;
#X connect 31 1 41 0;
#X connect 32 0 43 0;
#X connect 32 1 43 0;
#X connect 33 0 45 0;
#X connect 33 1 45 0;
#X connect 34 0 47 0;
#X connect 34 1 47 0;
#X connect 35 0 49 0;
#X connect 35 1 49 0;
#X connect 36 0 51 0;
#X connect 36 1 51 0;
#X connect 37 0 38 0;
#X connect 39 0 40 0;
#X connect 41 0 42 0;
#X connect 43 0 44 0;
#X connect 45 0 46 0;
#X connect 47 0 48 0;
#X connect 49 0 50 0;
#X connect 51 0 52 0;
#X connect 53 0 0 0;
#X connect 54 0 2 0;
