#N canvas 7 50 450 300 10;
#X obj 96 180 spigot 0;
#X obj 162 55 t f b;
#X msg 275 152 0;
#X msg 162 134 1;
#X obj 76 139 r p\$1s\$2;
#X obj 162 28 r screen-page-sel;
#X obj 162 77 sel \$1;
#X obj 96 213 s screenLine\$2;
#X obj 284 101 r disable-all-out;
#X connect 0 0 7 0;
#X connect 1 0 6 0;
#X connect 1 1 2 0;
#X connect 2 0 0 1;
#X connect 3 0 0 1;
#X connect 4 0 0 0;
#X connect 5 0 1 0;
#X connect 6 0 3 0;
#X connect 8 0 2 0;
