#N canvas 176 269 1139 796 10;
#X obj 127 248 rngs_chorus~;
#X obj 99 397 throw~ outL;
#X obj 199 396 throw~ outR;
#X obj 419 495 loadbang;
#X obj 674 146 i;
#X obj 674 119 * 100;
#X obj 492 150 i;
#X obj 492 172 change -1;
#X obj 674 169 change -1;
#X obj 493 87 r knob1;
#X obj 493 223 s screenLine1;
#X obj 673 92 r knob2;
#X obj 674 220 s screenLine2;
#X msg 492 198 1: Amount \$1 %;
#X obj 494 118 * 100;
#X msg 674 195 2: Depth \$1 %;
#X obj 128 197 r~ inL;
#X msg 675 596 \; screenLine1 1: Amount \; screenLine2 2: Depth \;
screenLine3 3: x \; screenLine4 4: x \; screenLine5 Aux: x \;;
#X msg 419 516 \; screenLine1 1: Amount \; screenLine2 2: Depth \;
;
#X obj 183 194 r~ inR;
#X connect 0 0 1 0;
#X connect 0 1 2 0;
#X connect 3 0 18 0;
#X connect 4 0 8 0;
#X connect 5 0 4 0;
#X connect 6 0 7 0;
#X connect 7 0 13 0;
#X connect 8 0 15 0;
#X connect 9 0 14 0;
#X connect 9 0 0 2;
#X connect 11 0 5 0;
#X connect 11 0 0 3;
#X connect 13 0 10 0;
#X connect 14 0 6 0;
#X connect 15 0 12 0;
#X connect 16 0 0 0;
#X connect 19 0 0 1;
