#N canvas 448 354 1920 990 10;
#X declare -path o-knob;
#X obj 317 796 throw~ outL;
#X obj 407 796 throw~ outR;
#X obj 243 59 cnv 15 100 60 empty empty page_3 20 12 0 14 -154742 -66577
0;
#N canvas 363 90 1539 1097 presets 0;
#X obj 452 99 int;
#X obj 704 103 int;
#X obj 704 81 * 2;
#X floatatom 704 125 5 0 0 0 - - -, f 5;
#X obj 704 146 t f f;
#X obj 705 188 -;
#X obj 705 208 > 0;
#X obj 705 231 change;
#X obj 705 253 sel 1;
#X text 32 42 save/load;
#X text 349 33 (in) preset number;
#X obj 128 105 int;
#X obj 452 77 * 10;
#X obj 128 83 * 2;
#X obj 128 127 sel 0 1;
#X obj 399 270 f;
#X obj 399 300 pack f f;
#X obj 399 322 route 0 1;
#X text 362 371 save;
#X text 741 372 load;
#X floatatom 163 105 5 0 0 0 - - -, f 5;
#X floatatom 489 100 5 0 0 0 - - -, f 5;
#X obj 341 516 list prepend;
#X obj 341 688 s;
#X obj 341 538 list split 1;
#X msg 128 151 symbol save;
#X msg 151 176 symbol load;
#X obj 341 650 list trim;
#X obj 341 624 list;
#X obj 341 578 t b s, f 10;
#X msg 742 82 \; screenLine3 3: L to R => OK;
#X text 585 416 clean;
#X text 445 518 route;
#X text 267 421 get;
#X msg 22 365 \; screenLine4 SAVED to PRESET \$1;
#X msg 665 421 \; screenLine4 PRESET \$1 LOADED;
#X msg 452 121 \; screenLine2 2: preset \$1;
#X msg 128 217 \; screenLine1 1: operation : \$1;
#X msg 618 796 \; clds-lofi 0 \; clds-lofi 0 \; clds-bypass 0 \; clds-bypass
0 \; clds-silence 0 \; clds-silence 0 \; clds-mono 0 \; clds-mono 0
\; clds-mode 0.480315 \; clds-mode 0.480315 \; clds-reverb 0.456693
\; clds-reverb 0.456693 \; clds-size 0.440945 \; clds-size 0.440945
\; clds-feedback 0.464567 \; clds-feedback 0.464567 \; clds-spread
0.503937 \; clds-spread 0.503937 \; clds-texture 0.732283 \; clds-texture
0.732283 \; clds-density 0.606299 \; clds-density 0.606299 \; clds-pitch
0.480315 \; clds-pitch 0.480315 \; clds-position 0.393701 \; clds-position
0.393701 \; clds-freeze 0 \; clds-freeze 0 \; clds-freeze 0 \; clds-freeze
0 \; clds-mix 0.76378 \; clds-mix 0.76378 \; clds-lofi 0 \; clds-bypass
0 \; clds-silence 0 \; clds-mono 0 \; clds-mode 0.480315 \; clds-reverb
0.456693 \; clds-size 0.440945 \; clds-feedback 0.464567 \; clds-spread
0.503937 \; clds-texture 0.732283 \; clds-density 0.606299 \; clds-pitch
0.480315 \; clds-position 0.393701 \; clds-freeze 0 \; clds-freeze
0 \; clds-mix 0.76378 \;;
#X msg 888 796 \; clds-lofi 0 \; clds-lofi 0 \; clds-bypass 0 \; clds-bypass
0 \; clds-silence 0 \; clds-silence 0 \; clds-mono 0 \; clds-mono 0
\; clds-mode 0.480315 \; clds-mode 0.480315 \; clds-reverb 0.456693
\; clds-reverb 0.456693 \; clds-size 0.440945 \; clds-size 0.440945
\; clds-feedback 0.464567 \; clds-feedback 0.464567 \; clds-spread
0.503937 \; clds-spread 0.503937 \; clds-texture 0.732283 \; clds-texture
0.732283 \; clds-density 0.606299 \; clds-density 0.606299 \; clds-pitch
0.480315 \; clds-pitch 0.480315 \; clds-position 0.393701 \; clds-position
0.393701 \; clds-freeze 0 \; clds-freeze 0 \; clds-freeze 0 \; clds-freeze
0 \; clds-mix 0.76378 \; clds-mix 0.76378 \; clds-lofi 0 \; clds-bypass
0 \; clds-silence 0 \; clds-mono 0 \; clds-mode 0.480315 \; clds-reverb
0.456693 \; clds-size 0.440945 \; clds-feedback 0.464567 \; clds-spread
0.503937 \; clds-texture 0.732283 \; clds-density 0.606299 \; clds-pitch
0.480315 \; clds-position 0.393701 \; clds-freeze 0 \; clds-freeze
0 \; clds-mix 0.76378 \;;
#X msg 1028 796 \; clds-lofi 0 \; clds-lofi 0 \; clds-bypass 0 \; clds-bypass
0 \; clds-silence 0 \; clds-silence 0 \; clds-mono 0 \; clds-mono 0
\; clds-mode 0.480315 \; clds-mode 0.480315 \; clds-reverb 0.456693
\; clds-reverb 0.456693 \; clds-size 0.440945 \; clds-size 0.440945
\; clds-feedback 0.464567 \; clds-feedback 0.464567 \; clds-spread
0.503937 \; clds-spread 0.503937 \; clds-texture 0.732283 \; clds-texture
0.732283 \; clds-density 0.606299 \; clds-density 0.606299 \; clds-pitch
0.480315 \; clds-pitch 0.480315 \; clds-position 0.393701 \; clds-position
0.393701 \; clds-freeze 0 \; clds-freeze 0 \; clds-freeze 0 \; clds-freeze
0 \; clds-mix 0.76378 \; clds-mix 0.76378 \; clds-lofi 0 \; clds-bypass
0 \; clds-silence 0 \; clds-mono 0 \; clds-mode 0.480315 \; clds-reverb
0.456693 \; clds-size 0.440945 \; clds-feedback 0.464567 \; clds-spread
0.503937 \; clds-texture 0.732283 \; clds-density 0.606299 \; clds-pitch
0.480315 \; clds-position 0.393701 \; clds-freeze 0 \; clds-freeze
0 \; clds-mix 0.76378 \;;
#X msg 1165 796;
#X msg 1307 796;
#X text 25 736 Your presets are here. You can have as much presets
as you want. Note that you can only save floats !;
#X obj 299 420 s o-get-params;
#X obj 341 461 r o-params;
#X obj 229 303 r o-save;
#X obj 617 299 r o-load;
#X text 710 315 you can load a preset or save current parameters to
a preset by sending a integer to o-load or o-save;
#X msg 445 400 \; o-preset-\$1 set \; o-preset-\$1 addsemi;
#X msg 422 490 o-preset-\$1;
#X msg 617 361 \; o-preset-\$1 bang;
#X obj 27 772 r o-preset-0;
#X obj 207 772 r o-preset-1;
#X obj 347 772 r o-preset-2;
#X obj 477 772 r o-preset-3;
#X obj 617 772 r o-preset-4;
#X obj 757 772 r o-preset-5;
#X obj 887 772 r o-preset-6;
#X obj 1026 772 r o-preset-7;
#X obj 1167 772 r o-preset-8;
#X obj 1307 772 r o-preset-9;
#X obj 974 49 cnv 15 450 80 empty empty empty 20 12 0 14 -154742 -66577
0;
#X text 632 12 do it ! (turn from left to right);
#X obj 768 119 loadbang;
#X msg 768 145 -1;
#X text 982 54 As the knobs are only useful on this page and not a
part of the synth \, we can use the second outlet only (no hidden update
of the ouput value). Also \, note that these knobs do not have a unique
name \, because it's not useful to save their state in a preset.;
#X msg 481 862 \; clds-mono 0 \; clds-mono 0 \; clds-bypass -2.14844e-05
\; clds-bypass -2.14844e-05 \; clds-trig 0 \; clds-trig 0 \; clds-lofi
0 \; clds-lofi 0 \; clds-silence 0 \; clds-silence 0 \; clds-mode 0.998064
\; clds-mode 0.998064 \; clds-reverb 0.547947 \; clds-reverb 0.547947
\; clds-feedback 0.19666 \; clds-feedback 0.19666 \; clds-spread 0.653627
\; clds-spread 0.653627 \; clds-texture 0.211338 \; clds-texture 0.211338
\; clds-density 0.837588 \; clds-density 0.837588 \; clds-pitch 0.50685
\; clds-pitch 0.50685 \; clds-size 0.504893 \; clds-size 0.504893 \;
clds-position 0.477494 \; clds-position 0.477494 \; clds-freeze 0 \;
clds-freeze 0 \; clds-mix 0.667326 \; clds-mix 0.667326 \; clds-mono
0 \; clds-bypass -2.14844e-05 \; clds-trig 0 \; clds-lofi 0 \; clds-silence
0 \; clds-mode 0.998064 \; clds-reverb 0.547947 \; clds-feedback 0.19666
\; clds-spread 0.653627 \; clds-texture 0.211338 \; clds-density 0.837588
\; clds-pitch 0.50685 \; clds-size 0.504893 \; clds-position 0.477494
\; clds-freeze 0 \; clds-mix 0.667326 \;;
#X msg 347 796 \; clds-mono 0 \; clds-mono 0 \; clds-bypass 0 \; clds-bypass
0 \; clds-trig 0 \; clds-trig 0 \; clds-lofi 0 \; clds-lofi 0 \; clds-silence
0 \; clds-silence 0 \; clds-mode 0.998064 \; clds-mode 0.998064 \;
clds-reverb -2.14844e-05 \; clds-reverb -2.14844e-05 \; clds-feedback
-0.001 \; clds-feedback -0.001 \; clds-spread -2.14844e-05 \; clds-spread
-2.14844e-05 \; clds-texture 0.437375 \; clds-texture 0.437375 \; clds-density
0.67124 \; clds-density 0.67124 \; clds-pitch 0.509785 \; clds-pitch
0.509785 \; clds-size -0.001 \; clds-size -0.001 \; clds-position -0.001
\; clds-position -0.001 \; clds-freeze 0 \; clds-freeze 0 \; clds-mix
0.998064 \; clds-mix 0.998064 \; clds-mono 0 \; clds-bypass 0 \; clds-trig
0 \; clds-lofi 0 \; clds-silence 0 \; clds-mode 0.998064 \; clds-reverb
-2.14844e-05 \; clds-feedback -0.001 \; clds-spread -2.14844e-05 \;
clds-texture 0.437375 \; clds-density 0.67124 \; clds-pitch 0.509785
\; clds-size -0.001 \; clds-position -0.001 \; clds-freeze 0 \; clds-mix
0.998064 \;;
#X msg 154 419 menusave;
#X obj 154 441 s pd-main.pd;
#X obj 399 372 t b b f f;
#X msg 757 796 \; clds-lofi 0 \; clds-lofi 0 \; clds-bypass 0 \; clds-bypass
0 \; clds-silence 0 \; clds-silence 0 \; clds-mono 0 \; clds-mono 0
\; clds-mode 0.480315 \; clds-mode 0.480315 \; clds-reverb 0.456693
\; clds-reverb 0.456693 \; clds-size 0.440945 \; clds-size 0.440945
\; clds-feedback 0.464567 \; clds-feedback 0.464567 \; clds-spread
0.503937 \; clds-spread 0.503937 \; clds-texture 0.732283 \; clds-texture
0.732283 \; clds-density 0.606299 \; clds-density 0.606299 \; clds-pitch
0.480315 \; clds-pitch 0.480315 \; clds-position 0.393701 \; clds-position
0.393701 \; clds-freeze 0 \; clds-freeze 0 \; clds-freeze 0 \; clds-freeze
0 \; clds-mix 0.76378 \; clds-mix 0.76378 \; clds-lofi 0 \; clds-bypass
0 \; clds-silence 0 \; clds-mono 0 \; clds-mode 0.480315 \; clds-reverb
0.456693 \; clds-size 0.440945 \; clds-feedback 0.464567 \; clds-spread
0.503937 \; clds-texture 0.732283 \; clds-density 0.606299 \; clds-pitch
0.480315 \; clds-position 0.393701 \; clds-freeze 0 \; clds-freeze
0 \; clds-mix 0.76378 \;;
#X msg 27 796 \; clds-mono 0 \; clds-mono 0 \; clds-bypass -2.14844e-05
\; clds-bypass -2.14844e-05 \; clds-trig 0 \; clds-trig 0 \; clds-lofi
0 \; clds-lofi 0 \; clds-silence 0 \; clds-silence 0 \; clds-mode 0.998064
\; clds-mode 0.998064 \; clds-reverb 0.547947 \; clds-reverb 0.547947
\; clds-feedback 0.19666 \; clds-feedback 0.19666 \; clds-spread 0.653627
\; clds-spread 0.653627 \; clds-texture 0.211338 \; clds-texture 0.211338
\; clds-density 0.837588 \; clds-density 0.837588 \; clds-pitch 0.50685
\; clds-pitch 0.50685 \; clds-size 0.504893 \; clds-size 0.504893 \;
clds-position 0.477494 \; clds-position 0.477494 \; clds-freeze 0 \;
clds-freeze 0 \; clds-mix 0.667326 \; clds-mix 0.667326 \;;
#X msg 209 803 \; clds-mono 0 \; clds-mono 0 \; clds-bypass 0 \; clds-bypass
0 \; clds-trig 0 \; clds-trig 0 \; clds-lofi 0 \; clds-lofi 0 \; clds-silence
0 \; clds-silence 0 \; clds-mode 0.998064 \; clds-mode 0.998064 \;
clds-reverb -2.14844e-05 \; clds-reverb -2.14844e-05 \; clds-feedback
-0.001 \; clds-feedback -0.001 \; clds-spread -2.14844e-05 \; clds-spread
-2.14844e-05 \; clds-texture 0.437375 \; clds-texture 0.437375 \; clds-density
0.67124 \; clds-density 0.67124 \; clds-pitch 0.509785 \; clds-pitch
0.509785 \; clds-size -0.001 \; clds-size -0.001 \; clds-position -0.001
\; clds-position -0.001 \; clds-freeze 0 \; clds-freeze 0 \; clds-mix
0.998064 \; clds-mix 0.998064 \; clds-mono 0 \; clds-bypass 0 \; clds-trig
0 \; clds-lofi 0 \; clds-silence 0 \; clds-mode 0.998064 \; clds-reverb
-2.14844e-05 \; clds-feedback -0.001 \; clds-spread -2.14844e-05 \;
clds-texture 0.437375 \; clds-density 0.67124 \; clds-pitch 0.509785
\; clds-size -0.001 \; clds-position -0.001 \; clds-freeze 0 \; clds-mix
0.998064 \;;
#X obj 29 61 o-knob 5 1;
#X obj 350 56 o-knob 5 2;
#X obj 639 36 o-knob 5 3;
#X connect 0 0 36 0;
#X connect 0 0 16 1;
#X connect 0 0 21 0;
#X connect 1 0 3 0;
#X connect 2 0 1 0;
#X connect 3 0 4 0;
#X connect 4 0 5 1;
#X connect 4 1 5 0;
#X connect 5 0 6 0;
#X connect 6 0 7 0;
#X connect 7 0 8 0;
#X connect 8 0 15 0;
#X connect 11 0 14 0;
#X connect 11 0 15 1;
#X connect 11 0 20 0;
#X connect 12 0 0 0;
#X connect 13 0 11 0;
#X connect 14 0 25 0;
#X connect 14 1 26 0;
#X connect 15 0 16 0;
#X connect 16 0 17 0;
#X connect 17 0 34 0;
#X connect 17 0 71 0;
#X connect 17 1 51 0;
#X connect 17 1 35 0;
#X connect 22 0 24 0;
#X connect 24 0 29 0;
#X connect 24 1 28 1;
#X connect 25 0 37 0;
#X connect 26 0 37 0;
#X connect 27 0 23 0;
#X connect 28 0 27 0;
#X connect 29 0 28 0;
#X connect 29 1 23 1;
#X connect 45 0 22 0;
#X connect 46 0 71 0;
#X connect 47 0 51 0;
#X connect 50 0 22 1;
#X connect 52 0 73 0;
#X connect 53 0 74 0;
#X connect 54 0 68 0;
#X connect 55 0 67 0;
#X connect 56 0 38 0;
#X connect 57 0 72 0;
#X connect 58 0 39 0;
#X connect 59 0 40 0;
#X connect 60 0 41 0;
#X connect 61 0 42 0;
#X connect 64 0 65 0;
#X connect 65 0 5 0;
#X connect 69 0 70 0;
#X connect 71 0 69 0;
#X connect 71 1 44 0;
#X connect 71 2 50 0;
#X connect 71 3 49 0;
#X connect 75 1 13 0;
#X connect 76 1 12 0;
#X connect 77 1 30 0;
#X connect 77 1 2 0;
#X restore 256 90 pd presets;
#X obj 53 59 cnv 15 100 60 empty empty empty 20 12 0 14 -154742 -66577
0;
#N canvas 386 50 928 753 browsing 0;
#X obj 49 50 r aux;
#X obj 49 72 sel 1;
#X msg 49 94 1;
#X obj 49 116 +;
#X obj 88 118 f;
#X floatatom 49 138 5 0 0 0 - - -, f 5;
#X obj 172 23 loadbang;
#X msg 202 147 \; screenLine1 : \; screenLine2 : \; screenLine3 : \;
screenLine4 : \;;
#X msg 179 95 0;
#X obj 49 157 t f f f b;
#X msg 48 442 \; led \$1;
#X msg 107 379 symbol Presets;
#X msg 68 410 \; screenLine5 Page : \$1;
#X obj 89 221 s o-page-selected;
#X obj 179 117 s o-load;
#X obj 178 54 delay 1000;
#X text 328 164 *clear the screen*;
#X obj 63 240 sel 1 2 3 4 5;
#X msg 89 283 symbol Page2;
#X msg 69 263 symbol Page1;
#X msg 118 302 symbol Page3;
#X msg 138 322 symbol Page4;
#X obj 125 119 % 5;
#X connect 0 0 1 0;
#X connect 1 0 2 0;
#X connect 2 0 3 0;
#X connect 3 0 4 0;
#X connect 3 0 5 0;
#X connect 4 0 22 0;
#X connect 5 0 9 0;
#X connect 6 0 2 0;
#X connect 6 0 15 0;
#X connect 8 0 14 0;
#X connect 9 0 10 0;
#X connect 9 1 17 0;
#X connect 9 2 13 0;
#X connect 9 3 7 0;
#X connect 11 0 12 0;
#X connect 15 0 8 0;
#X connect 17 0 19 0;
#X connect 17 1 18 0;
#X connect 17 2 20 0;
#X connect 17 3 21 0;
#X connect 17 4 11 0;
#X connect 18 0 12 0;
#X connect 19 0 12 0;
#X connect 20 0 12 0;
#X connect 21 0 12 0;
#X connect 22 0 3 1;
#X restore 63 81 pd browsing;
#N canvas 6 50 440 271 RESERVED 0;
#X obj 241 123 s o-get-params;
#X obj 241 104 r o-params;
#X obj 241 66 r o-save;
#X obj 241 85 r o-load;
#X obj 241 142 s o-page-selected;
#X text 19 25 These names are reserved ! Don't use them unless you
know what you're doing !;
#X text 17 73 GOOD USE EXAMPLES \; -save values to preset \; -load
preset \; -receive parameters \; -get parameters \; -select a page
\;;
#X text 16 178 WRONG USE EXAMPLES \; -using one of these for anything
but one of the good examples above \; -naming your child;
#X restore 54 129 pd RESERVED NAMES;
#X obj 51 20 declare -path o-knob;
#X obj 485 52 vsl 15 128 0 1 0 0 empty empty mix 0 -9 0 10 -262144
-1 -1 0 1;
#N canvas 1086 254 1427 992 presets 0;
#X obj 452 99 int;
#X obj 704 103 int;
#X obj 704 81 * 2;
#X floatatom 704 125 5 0 0 0 - - -, f 5;
#X obj 704 146 t f f;
#X obj 705 188 -;
#X obj 705 208 > 0;
#X obj 705 231 change;
#X obj 705 253 sel 1;
#X text 32 42 save/load;
#X text 349 33 (in) preset number;
#X obj 128 105 int;
#X obj 452 77 * 10;
#X obj 128 83 * 2;
#X obj 128 127 sel 0 1;
#X obj 399 270 f;
#X obj 399 300 pack f f;
#X obj 399 322 route 0 1;
#X text 362 371 save;
#X text 741 372 load;
#X floatatom 163 105 5 0 0 0 - - -, f 5;
#X floatatom 489 100 5 0 0 0 - - -, f 5;
#X obj 358 537 list prepend;
#X obj 358 709 s;
#X obj 358 559 list split 1;
#X msg 128 151 symbol save;
#X msg 151 176 symbol load;
#X obj 358 671 list trim;
#X obj 358 645 list;
#X obj 358 599 t b s, f 10;
#X text 599 416 clean;
#X text 462 539 route;
#X text 206 461 get;
#X msg 19 366 \; screenLine4 SAVED to PRESET \$1;
#X msg 665 421 \; screenLine4 PRESET \$1 LOADED;
#X msg 207 796 \; clds-mono 0 \; clds-mono 0 \; clds-bypass 0 \; clds-bypass
0 \; clds-trig 0 \; clds-trig 0 \; clds-lofi 0 \; clds-lofi 0 \; clds-silence
0 \; clds-silence 0 \; clds-mode 0.998064 \; clds-mode 0.998064 \;
clds-reverb -2.14844e-05 \; clds-reverb -2.14844e-05 \; clds-feedback
-0.001 \; clds-feedback -0.001 \; clds-spread -2.14844e-05 \; clds-spread
-2.14844e-05 \; clds-texture 0.437375 \; clds-texture 0.437375 \; clds-density
0.67124 \; clds-density 0.67124 \; clds-pitch 0.509785 \; clds-pitch
0.509785 \; clds-size -0.001 \; clds-size -0.001 \; clds-position -0.001
\; clds-position -0.001 \; clds-freeze 0 \; clds-freeze 0 \; clds-mix
0.998064 \; clds-mix 0.998064 \; clds-mono 0 \; clds-bypass 0 \; clds-trig
0 \; clds-lofi 0 \; clds-silence 0 \; clds-mode 0.998064 \; clds-reverb
-2.14844e-05 \; clds-feedback -0.001 \; clds-spread -2.14844e-05 \;
clds-texture 0.437375 \; clds-density 0.67124 \; clds-pitch 0.509785
\; clds-size -0.001 \; clds-position -0.001 \; clds-freeze 0 \; clds-mix
0.998064 \;;
#X msg 477 796 \; clds-mono 0 \; clds-mono 0 \; clds-bypass -2.14844e-05
\; clds-bypass -2.14844e-05 \; clds-trig 0 \; clds-trig 0 \; clds-lofi
0 \; clds-lofi 0 \; clds-silence 0 \; clds-silence 0 \; clds-mode 0.998064
\; clds-mode 0.998064 \; clds-reverb 0.547947 \; clds-reverb 0.547947
\; clds-feedback 0.19666 \; clds-feedback 0.19666 \; clds-spread 0.653627
\; clds-spread 0.653627 \; clds-texture 0.211338 \; clds-texture 0.211338
\; clds-density 0.837588 \; clds-density 0.837588 \; clds-pitch 0.50685
\; clds-pitch 0.50685 \; clds-size 0.504893 \; clds-size 0.504893 \;
clds-position 0.477494 \; clds-position 0.477494 \; clds-freeze 0 \;
clds-freeze 0 \; clds-mix 0.667326 \; clds-mix 0.667326 \; clds-mono
0 \; clds-bypass -2.14844e-05 \; clds-trig 0 \; clds-lofi 0 \; clds-silence
0 \; clds-mode 0.998064 \; clds-reverb 0.547947 \; clds-feedback 0.19666
\; clds-spread 0.653627 \; clds-texture 0.211338 \; clds-density 0.837588
\; clds-pitch 0.50685 \; clds-size 0.504893 \; clds-position 0.477494
\; clds-freeze 0 \; clds-mix 0.667326 \;;
#X msg 618 796 \; clds-lofi 0 \; clds-lofi 0 \; clds-bypass 0 \; clds-bypass
0 \; clds-silence 0 \; clds-silence 0 \; clds-mono 0 \; clds-mono 0
\; clds-mode 0.480315 \; clds-mode 0.480315 \; clds-reverb 0.456693
\; clds-reverb 0.456693 \; clds-size 0.440945 \; clds-size 0.440945
\; clds-feedback 0.464567 \; clds-feedback 0.464567 \; clds-spread
0.503937 \; clds-spread 0.503937 \; clds-texture 0.732283 \; clds-texture
0.732283 \; clds-density 0.606299 \; clds-density 0.606299 \; clds-pitch
0.480315 \; clds-pitch 0.480315 \; clds-position 0.393701 \; clds-position
0.393701 \; clds-freeze 0 \; clds-freeze 0 \; clds-freeze 0 \; clds-freeze
0 \; clds-mix 0.76378 \; clds-mix 0.76378 \; clds-lofi 0 \; clds-bypass
0 \; clds-silence 0 \; clds-mono 0 \; clds-mode 0.480315 \; clds-reverb
0.456693 \; clds-size 0.440945 \; clds-feedback 0.464567 \; clds-spread
0.503937 \; clds-texture 0.732283 \; clds-density 0.606299 \; clds-pitch
0.480315 \; clds-position 0.393701 \; clds-freeze 0 \; clds-freeze
0 \; clds-mix 0.76378 \;;
#X msg 757 796 \; clds-lofi 0 \; clds-lofi 0 \; clds-bypass 0 \; clds-bypass
0 \; clds-silence 0 \; clds-silence 0 \; clds-mono 0 \; clds-mono 0
\; clds-mode 0.480315 \; clds-mode 0.480315 \; clds-reverb 0.456693
\; clds-reverb 0.456693 \; clds-size 0.440945 \; clds-size 0.440945
\; clds-feedback 0.464567 \; clds-feedback 0.464567 \; clds-spread
0.503937 \; clds-spread 0.503937 \; clds-texture 0.732283 \; clds-texture
0.732283 \; clds-density 0.606299 \; clds-density 0.606299 \; clds-pitch
0.480315 \; clds-pitch 0.480315 \; clds-position 0.393701 \; clds-position
0.393701 \; clds-freeze 0 \; clds-freeze 0 \; clds-freeze 0 \; clds-freeze
0 \; clds-mix 0.76378 \; clds-mix 0.76378 \; clds-lofi 0 \; clds-bypass
0 \; clds-silence 0 \; clds-mono 0 \; clds-mode 0.480315 \; clds-reverb
0.456693 \; clds-size 0.440945 \; clds-feedback 0.464567 \; clds-spread
0.503937 \; clds-texture 0.732283 \; clds-density 0.606299 \; clds-pitch
0.480315 \; clds-position 0.393701 \; clds-freeze 0 \; clds-freeze
0 \; clds-mix 0.76378 \;;
#X msg 888 796 \; clds-lofi 0 \; clds-lofi 0 \; clds-bypass 0 \; clds-bypass
0 \; clds-silence 0 \; clds-silence 0 \; clds-mono 0 \; clds-mono 0
\; clds-mode 0.480315 \; clds-mode 0.480315 \; clds-reverb 0.456693
\; clds-reverb 0.456693 \; clds-size 0.440945 \; clds-size 0.440945
\; clds-feedback 0.464567 \; clds-feedback 0.464567 \; clds-spread
0.503937 \; clds-spread 0.503937 \; clds-texture 0.732283 \; clds-texture
0.732283 \; clds-density 0.606299 \; clds-density 0.606299 \; clds-pitch
0.480315 \; clds-pitch 0.480315 \; clds-position 0.393701 \; clds-position
0.393701 \; clds-freeze 0 \; clds-freeze 0 \; clds-freeze 0 \; clds-freeze
0 \; clds-mix 0.76378 \; clds-mix 0.76378 \; clds-lofi 0 \; clds-bypass
0 \; clds-silence 0 \; clds-mono 0 \; clds-mode 0.480315 \; clds-reverb
0.456693 \; clds-size 0.440945 \; clds-feedback 0.464567 \; clds-spread
0.503937 \; clds-texture 0.732283 \; clds-density 0.606299 \; clds-pitch
0.480315 \; clds-position 0.393701 \; clds-freeze 0 \; clds-freeze
0 \; clds-mix 0.76378 \;;
#X msg 1028 796 \; clds-lofi 0 \; clds-lofi 0 \; clds-bypass 0 \; clds-bypass
0 \; clds-silence 0 \; clds-silence 0 \; clds-mono 0 \; clds-mono 0
\; clds-mode 0.480315 \; clds-mode 0.480315 \; clds-reverb 0.456693
\; clds-reverb 0.456693 \; clds-size 0.440945 \; clds-size 0.440945
\; clds-feedback 0.464567 \; clds-feedback 0.464567 \; clds-spread
0.503937 \; clds-spread 0.503937 \; clds-texture 0.732283 \; clds-texture
0.732283 \; clds-density 0.606299 \; clds-density 0.606299 \; clds-pitch
0.480315 \; clds-pitch 0.480315 \; clds-position 0.393701 \; clds-position
0.393701 \; clds-freeze 0 \; clds-freeze 0 \; clds-freeze 0 \; clds-freeze
0 \; clds-mix 0.76378 \; clds-mix 0.76378 \; clds-lofi 0 \; clds-bypass
0 \; clds-silence 0 \; clds-mono 0 \; clds-mode 0.480315 \; clds-reverb
0.456693 \; clds-size 0.440945 \; clds-feedback 0.464567 \; clds-spread
0.503937 \; clds-texture 0.732283 \; clds-density 0.606299 \; clds-pitch
0.480315 \; clds-position 0.393701 \; clds-freeze 0 \; clds-freeze
0 \; clds-mix 0.76378 \;;
#X msg 1165 796;
#X msg 1307 796;
#X floatatom 755 60 5 0 0 0 - - -, f 5;
#X text 25 736 Your presets are here. You can have as much presets
as you want. Note that you can only save floats !;
#X obj 238 460 s o-get-params;
#X obj 358 482 r o-params;
#X obj 229 303 r o-save;
#X text 294 303 << RESERVED;
#X text 346 461 << RESERVED;
#X text 432 483 << RESERVED;
#X text 684 299 << RESERVED;
#X obj 617 299 r o-load;
#X text 710 315 you can load a preset or save current parameters to
a preset by sending a integer to o-load or o-save;
#X msg 459 400 \; o-preset-\$1 set \; o-preset-\$1 addsemi;
#X msg 439 511 o-preset-\$1;
#X msg 617 361 \; o-preset-\$1 bang;
#X obj 27 772 r o-preset-0;
#X obj 207 772 r o-preset-1;
#X obj 347 772 r o-preset-2;
#X obj 477 772 r o-preset-3;
#X obj 617 772 r o-preset-4;
#X obj 757 772 r o-preset-5;
#X obj 887 772 r o-preset-6;
#X obj 1026 772 r o-preset-7;
#X obj 1167 772 r o-preset-8;
#X obj 1307 772 r o-preset-9;
#X text 632 12 do it ! (turn from left to right);
#X obj 277 546 print;
#X obj 768 119 loadbang;
#X msg 766 145 -1;
#X obj 766 218 tgl 15 0 empty empty empty 17 7 0 10 -262144 -1 -1 0
1;
#X msg 128 217 \; screenLine1 1:operation : \$1;
#X msg 452 121 \; screenLine2 2:preset \$1;
#X msg 742 82 \; screenLine3 3:L to R => OK;
#X obj 28 61 o-knob 5 1;
#X obj 350 55 o-knob 5 2;
#X obj 639 36 o-knob 5 3;
#X msg 347 796 \; clds-mono 0 \; clds-mono 0 \; clds-bypass 0 \; clds-bypass
0 \; clds-trig 0 \; clds-trig 0 \; clds-lofi 0 \; clds-lofi 0 \; clds-silence
0 \; clds-silence 0 \; clds-mode 0.998064 \; clds-mode 0.998064 \;
clds-reverb -2.14844e-05 \; clds-reverb -2.14844e-05 \; clds-feedback
-0.001 \; clds-feedback -0.001 \; clds-spread -2.14844e-05 \; clds-spread
-2.14844e-05 \; clds-texture 0.437375 \; clds-texture 0.437375 \; clds-density
0.67124 \; clds-density 0.67124 \; clds-pitch 0.509785 \; clds-pitch
0.509785 \; clds-size -0.001 \; clds-size -0.001 \; clds-position -0.001
\; clds-position -0.001 \; clds-freeze 0 \; clds-freeze 0 \; clds-mix
0.998064 \; clds-mix 0.998064 \; clds-mono 0 \; clds-bypass 0 \; clds-trig
0 \; clds-lofi 0 \; clds-silence 0 \; clds-mode 0.998064 \; clds-reverb
-2.14844e-05 \; clds-feedback -0.001 \; clds-spread -2.14844e-05 \;
clds-texture 0.437375 \; clds-density 0.67124 \; clds-pitch 0.509785
\; clds-size -0.001 \; clds-position -0.001 \; clds-freeze 0 \; clds-mix
0.998064 \;;
#X msg 27 796 \; clds-mono 0 \; clds-mono 0 \; clds-bypass -2.14844e-05
\; clds-bypass -2.14844e-05 \; clds-trig 0 \; clds-trig 0 \; clds-lofi
0 \; clds-lofi 0 \; clds-silence 0 \; clds-silence 0 \; clds-mode 0.998064
\; clds-mode 0.998064 \; clds-reverb 0.547947 \; clds-reverb 0.547947
\; clds-feedback 0.19666 \; clds-feedback 0.19666 \; clds-spread 0.653627
\; clds-spread 0.653627 \; clds-texture 0.211338 \; clds-texture 0.211338
\; clds-density 0.837588 \; clds-density 0.837588 \; clds-pitch 0.50685
\; clds-pitch 0.50685 \; clds-size 0.504893 \; clds-size 0.504893 \;
clds-position 0.477494 \; clds-position 0.477494 \; clds-freeze 0 \;
clds-freeze 0 \; clds-mix 0.667326 \; clds-mix 0.667326 \;;
#X msg 42 479 menusave;
#X obj 42 501 s pd-main.pd;
#X obj 399 371 t b b f f;
#X connect 0 0 73 0;
#X connect 0 0 16 1;
#X connect 0 0 21 0;
#X connect 1 0 3 0;
#X connect 2 0 1 0;
#X connect 3 0 4 0;
#X connect 4 0 5 1;
#X connect 4 1 5 0;
#X connect 5 0 6 0;
#X connect 6 0 7 0;
#X connect 6 0 71 0;
#X connect 7 0 8 0;
#X connect 8 0 15 0;
#X connect 11 0 14 0;
#X connect 11 0 15 1;
#X connect 11 0 20 0;
#X connect 12 0 0 0;
#X connect 13 0 11 0;
#X connect 14 0 25 0;
#X connect 14 1 26 0;
#X connect 15 0 16 0;
#X connect 16 0 17 0;
#X connect 17 0 33 0;
#X connect 17 0 82 0;
#X connect 17 1 56 0;
#X connect 17 1 34 0;
#X connect 22 0 24 0;
#X connect 24 0 29 0;
#X connect 24 1 28 1;
#X connect 25 0 72 0;
#X connect 26 0 72 0;
#X connect 27 0 23 0;
#X connect 28 0 27 0;
#X connect 29 0 28 0;
#X connect 29 1 23 1;
#X connect 46 0 68 0;
#X connect 46 0 22 0;
#X connect 47 0 82 0;
#X connect 52 0 56 0;
#X connect 55 0 22 1;
#X connect 57 0 79 0;
#X connect 58 0 35 0;
#X connect 59 0 78 0;
#X connect 60 0 36 0;
#X connect 61 0 37 0;
#X connect 62 0 38 0;
#X connect 63 0 39 0;
#X connect 64 0 40 0;
#X connect 65 0 41 0;
#X connect 66 0 42 0;
#X connect 69 0 70 0;
#X connect 70 0 5 0;
#X connect 75 1 13 0;
#X connect 76 1 12 0;
#X connect 77 1 74 0;
#X connect 77 1 2 0;
#X connect 77 1 43 0;
#X connect 80 0 81 0;
#X connect 82 0 80 0;
#X connect 82 1 45 0;
#X connect 82 2 55 0;
#X connect 82 3 54 0;
#X restore 79 402 pd presets;
#N canvas 191 120 791 940 page-selector 0;
#X obj 95 469 s o-page-selected;
#X obj 95 207 vradio 15 1 0 8 empty empty empty 0 -8 0 10 -262144 -1
-1 2;
#X obj 95 50 r aux;
#X obj 95 72 sel 1;
#X msg 95 144 1;
#X obj 95 166 +;
#X obj 95 187 f;
#X obj 95 365 t f f b;
#X obj 118 498 sel 1 2 3 4 5;
#X obj 130 177 % 5;
#X obj 150 50 loadbang;
#X obj 150 72 t b b;
#X msg 182 97 0;
#X obj 182 119 s o-load;
#X obj 44 78 inlet;
#X obj 44 100 + 1;
#X obj 115 344 outlet;
#X msg 156 397 \; screenLine1 . \; screenLine2 . \; screenLine3 . \;
screenLine4 .;
#X msg 216 541 symbol >P1;
#X msg 216 560 symbol >P2;
#X msg 216 579 symbol >P3;
#X msg 216 598 symbol >P4;
#X msg 216 617 symbol >P5;
#X connect 1 0 7 0;
#X connect 1 0 16 0;
#X connect 2 0 3 0;
#X connect 3 0 4 0;
#X connect 4 0 5 0;
#X connect 5 0 6 0;
#X connect 6 0 1 0;
#X connect 6 0 9 0;
#X connect 7 0 0 0;
#X connect 7 1 8 0;
#X connect 7 2 17 0;
#X connect 8 0 18 0;
#X connect 8 1 19 0;
#X connect 8 2 20 0;
#X connect 8 3 21 0;
#X connect 8 4 22 0;
#X connect 9 0 5 1;
#X connect 10 0 11 0;
#X connect 11 0 4 0;
#X connect 11 1 12 0;
#X connect 12 0 13 0;
#X connect 14 0 15 0;
#X connect 15 0 6 0;
#X restore 78 250 pd page-selector;
#X floatatom 78 270 5 0 0 0 - - -, f 5;
#X obj 79 443 hradio 15 1 0 8 o-save empty save -30 7 0 10 -261234
-1 -1 0;
#X obj 79 423 hradio 15 1 0 8 o-load empty load -30 7 0 10 -204786
-1 -1 0;
#X obj 78 231 hradio 15 1 0 8 empty empty empty 0 -8 0 10 -262144 -1
-1 2;
#X obj 534 49 tgl 15 0 empty empty freeze 17 7 0 10 -262144 -1 -1 0
1;
#X obj 580 49 tgl 15 0 empty empty trig 17 7 0 10 -262144 -1 -1 0 1
;
#X obj 625 54 vsl 15 128 0 1 0 0 empty empty position 0 -9 0 10 -262144
-1 -1 0 1;
#X obj 700 54 vsl 15 128 0 1 0 0 empty empty size 0 -9 0 10 -262144
-1 -1 0 1;
#X obj 764 56 vsl 15 128 -1 1 0 0 empty empty pitch 0 -9 0 10 -262144
-1 -1 0 1;
#X obj 830 54 vsl 15 128 0 1 0 0 empty empty density 0 -9 0 10 -262144
-1 -1 0 1;
#X obj 896 54 vsl 15 128 0 1 0 0 empty empty texture 0 -9 0 10 -262144
-1 -1 0 1;
#X obj 953 54 vsl 15 128 0 1 0 0 empty empty spread 0 -9 0 10 -262144
-1 -1 0 1;
#X obj 1009 52 vsl 15 128 0 1 0 0 empty empty feedback 0 -9 0 10 -262144
-1 -1 0 1;
#X obj 1070 53 vsl 15 128 0 1 0 0 empty empty reverb 0 -9 0 10 -262144
-1 -1 0 1;
#X obj 1313 49 tgl 15 0 empty empty bypass 17 7 0 10 -262144 -1 -1
0 1;
#X obj 1357 48 tgl 15 0 empty empty silence 17 7 0 10 -262144 -1 -1
0 1;
#X obj 1417 49 tgl 15 0 empty empty mono 17 7 0 10 -262144 -1 -1 0
1;
#X obj 1475 49 tgl 15 0 empty empty lofi 17 7 0 10 -262144 -1 -1 0
1;
#X obj 312 170 r~ inL;
#X obj 397 170 r~ inR;
#X obj 969 484 r notes;
#X obj 967 520 unpack f f;
#X obj 965 571 sel 60;
#X obj 934 612 spigot 0;
#X obj 930 825 spigot 0;
#X obj 989 630 sel 61;
#X obj 1048 695 > 0;
#X obj 1038 730 &;
#X msg 1013 695 1;
#X obj 973 774 / 64;
#X obj 981 747 - 72;
#X text 1431 22 mono and lofi disabled;
#X obj 1113 54 vsl 15 128 0 1 0 0 empty empty mode 0 -9 0 10 -262144
-1 -1 0 1;
#N canvas 667 86 1799 1216 clouds 0;
#X obj 245 43 inlet mix;
#X obj 22 177 outlet~ outL;
#X obj 108 179 outlet~ outR;
#X obj 35 64 inlet~ inL;
#X obj 108 64 inlet~ inR;
#X obj 84 120 clds~;
#X obj 160 307 * 100;
#X msg 49 318 mix \$1;
#X obj 36 39 r clds_param;
#X obj 48 374 s clds_param;
#X obj 101 277 o-knob 1 1 clds-mix;
#X obj 309 42 inlet freeze;
#X obj 395 43 inlet trig;
#X obj 304 369 s clds_param;
#X msg 305 330 freeze \$1;
#X obj 557 365 s clds_param;
#X msg 558 309 trig \$1;
#X obj 330 268 o-knob 1 2 clds-freeze;
#X obj 815 361 s clds_param;
#X obj 465 43 inlet position;
#X msg 816 305 position \$1;
#X obj 43 546 s clds_param;
#X obj 868 264 o-knob 1 4 clds-position;
#X obj 559 44 inlet size;
#X msg 44 490 size \$1;
#X obj 279 628 s clds_param;
#X obj 631 43 inlet pitch;
#X msg 285 601 pitch \$1;
#X obj 154 496 * 100;
#X obj 965 294 * 100;
#X obj 835 44 inlet texture;
#X obj 928 44 inlet spread;
#X obj 1009 45 inlet feedback;
#X obj 1104 44 inlet reverb;
#X obj 1190 43 inlet mode;
#X obj 1542 40 inlet lofi;
#X obj 1354 43 inlet silence;
#X obj 534 546 s clds_param;
#X obj 645 496 * 100;
#X obj 765 547 s clds_param;
#X obj 899 481 * 100;
#X obj 46 799 s clds_param;
#X obj 207 726 * 100;
#X obj 310 801 s clds_param;
#X obj 419 737 * 100;
#X msg 535 490 density \$1;
#X msg 766 491 texture \$1;
#X msg 47 743 spread \$1;
#X msg 313 747 feedback \$1;
#X obj 730 44 inlet density;
#X obj 584 797 s clds_param;
#X obj 733 721 * 100;
#X obj 846 795 s clds_param;
#X obj 64 1034 s clds_param;
#X obj 304 1084 s clds_param;
#X obj 787 1054 s clds_param;
#X msg 585 741 reverb \$1;
#X msg 826 739 mode \$1;
#X msg 298 974 silence \$1;
#X obj 1037 1075 s clds_param;
#X msg 1038 1019 lofi \$1;
#X obj 42 217 print;
#X obj 96 449 o-knob 2 1 clds-size;
#X obj 291 434 o-knob 2 2 clds-pitch;
#X obj 587 449 o-knob 2 3 clds-density;
#X obj 818 450 o-knob 2 4 clds-texture;
#X obj 99 702 o-knob 3 1 clds-spread;
#X obj 349 703 o-knob 3 2 clds-feedback;
#X obj 637 700 o-knob 3 3 clds-reverb;
#X obj 880 634 o-knob 3 4 clds-mode;
#X obj 350 933 o-knob 4 2 clds-silence;
#X obj 1043 958 o-knob 4 4 clds-lofi;
#X obj 330 306 > 0.5;
#X obj 557 288 > 0.5;
#X obj 1041 988 > 0.5;
#X obj 779 969 > 0.5;
#X obj 292 948 > 0.5;
#X obj 64 951 > 0.5;
#X msg 407 1017 \; screenLine2 silence \$1;
#X msg 138 841 \; screenLine1 spread \$1 %;
#X msg 406 787 \; screenLine2 feedback \$1 %;
#X msg 694 784 \; screenLine3 reverb \$1 %;
#X msg 875 534 \; screenLine4 texture \$1 %;
#X msg 99 581 \; screenLine1 size \$1 %;
#X msg 925 348 \; screenLine4 position \$1 %;
#X msg 414 350 \; screenLine2 freeze \$1;
#X msg 158 355 \; screenLine1 mix \$1 %;
#X obj 564 267 o-knob 1 3 clds-trig;
#N canvas 0 50 450 300 dbool 0;
#X obj 156 83 inlet;
#X obj 158 128 > 0.5;
#X obj 159 252 outlet;
#X msg 147 217 symbol on;
#X msg 226 221 symbol off;
#X obj 172 180 sel 1;
#X connect 0 0 1 0;
#X connect 1 0 5 0;
#X connect 3 0 2 0;
#X connect 4 0 2 0;
#X connect 5 0 3 0;
#X connect 5 1 4 0;
#X restore 669 315 pd dbool;
#X msg 665 352 \; screenLine3 trig \$1;
#N canvas 0 50 450 300 dbool 0;
#X obj 156 83 inlet;
#X obj 158 128 > 0.5;
#X obj 159 252 outlet;
#X msg 147 217 symbol on;
#X msg 226 221 symbol off;
#X obj 172 180 sel 1;
#X connect 0 0 1 0;
#X connect 1 0 5 0;
#X connect 3 0 2 0;
#X connect 4 0 2 0;
#X connect 5 0 3 0;
#X connect 5 1 4 0;
#X restore 415 312 pd dbool;
#N canvas 0 50 450 300 dbool 0;
#X obj 156 83 inlet;
#X obj 158 128 > 0.5;
#X obj 159 252 outlet;
#X msg 147 217 symbol on;
#X msg 226 221 symbol off;
#X obj 172 180 sel 1;
#X connect 0 0 1 0;
#X connect 1 0 5 0;
#X connect 3 0 2 0;
#X connect 4 0 2 0;
#X connect 5 0 3 0;
#X connect 5 1 4 0;
#X restore 220 984 pd dbool;
#N canvas 0 50 450 300 dbool 0;
#X obj 156 83 inlet;
#X obj 158 128 > 0.5;
#X obj 159 252 outlet;
#X msg 147 217 symbol on;
#X msg 226 221 symbol off;
#X obj 172 180 sel 1;
#X connect 0 0 1 0;
#X connect 1 0 5 0;
#X connect 3 0 2 0;
#X connect 4 0 2 0;
#X connect 5 0 3 0;
#X connect 5 1 4 0;
#X restore 456 981 pd dbool;
#N canvas 1099 874 450 300 dbool 0;
#X obj 156 83 inlet;
#X obj 158 128 > 0.5;
#X obj 159 252 outlet;
#X msg 147 217 symbol on;
#X msg 226 221 symbol off;
#X obj 172 180 sel 1;
#X connect 0 0 1 0;
#X connect 1 0 5 0;
#X connect 3 0 2 0;
#X connect 4 0 2 0;
#X connect 5 0 3 0;
#X connect 5 1 4 0;
#X restore 940 1005 pd dbool;
#N canvas 1611 840 450 300 dbool 0;
#X obj 156 83 inlet;
#X obj 158 128 > 0.5;
#X obj 159 252 outlet;
#X msg 147 217 symbol on;
#X msg 226 221 symbol off;
#X obj 172 180 sel 1;
#X connect 0 0 1 0;
#X connect 1 0 5 0;
#X connect 3 0 2 0;
#X connect 4 0 2 0;
#X connect 5 0 3 0;
#X connect 5 1 4 0;
#X restore 1185 1017 pd dbool;
#X msg 620 557 \; screenLine3 density \$1 %;
#N canvas 0 50 875 694 dmode 0;
#X obj 156 83 inlet;
#X obj 158 370 outlet;
#X obj 172 180 sel 0 1 2 3;
#X msg 140 264 symbol grain;
#X msg 224 264 symbol stretch;
#X msg 327 266 symbol loop;
#X msg 420 266 symbol spectral;
#X connect 0 0 2 0;
#X connect 2 0 3 0;
#X connect 2 1 4 0;
#X connect 2 2 5 0;
#X connect 2 3 6 0;
#X connect 2 4 3 0;
#X connect 3 0 1 0;
#X connect 4 0 1 0;
#X connect 5 0 1 0;
#X connect 6 0 1 0;
#X restore 946 737 pd dmode;
#X msg 942 782 \; screenLine4 mode \$1;
#X obj 117 937 o-knob 4 1 clds-bypass;
#X obj 827 956 o-knob 4 3 clds-mono;
#X msg 775 997 mono \$1;
#X msg 65 978 bypass \$1;
#X msg 174 1021 \; screenLine1 bypass \$1;
#X msg 884 1040 \; screenLine3;
#X msg 1142 1060 \; screenLine4;
#X msg 385 567 \; screenLine2 pitch \$1;
#X obj 161 333 int;
#X obj 946 321 int;
#X obj 153 535 int;
#X obj 920 509 int;
#X obj 207 758 int;
#X obj 431 767 int;
#X obj 738 747 int;
#X obj 633 525 int;
#X obj 291 454 * 48;
#X obj 291 478 - 24;
#X obj 284 522 / 64;
#X obj 1637 46 inlet note;
#X obj 285 561 +;
#X obj 1551 232 t b f;
#X obj 1456 42 inlet mono;
#X obj 1265 44 inlet bypass;
#X obj 829 712 int;
#X obj 403 464 * 48;
#X obj 403 488 - 24;
#X obj 396 532 / 64;
#X obj 943 712 int;
#X obj 875 660 * 3;
#X obj 988 662 * 3;
#X obj 871 686 + 0.3;
#X obj 985 686 + 0.3;
#X connect 0 0 10 0;
#X connect 3 0 5 0;
#X connect 4 0 5 1;
#X connect 5 0 1 0;
#X connect 5 1 2 0;
#X connect 6 0 106 0;
#X connect 7 0 9 0;
#X connect 8 0 5 0;
#X connect 8 0 61 0;
#X connect 10 0 7 0;
#X connect 10 1 6 0;
#X connect 11 0 17 0;
#X connect 12 0 87 0;
#X connect 14 0 13 0;
#X connect 16 0 15 0;
#X connect 17 0 72 0;
#X connect 17 1 90 0;
#X connect 19 0 22 0;
#X connect 20 0 18 0;
#X connect 22 0 20 0;
#X connect 22 1 29 0;
#X connect 23 0 62 0;
#X connect 24 0 21 0;
#X connect 26 0 63 0;
#X connect 27 0 25 0;
#X connect 28 0 108 0;
#X connect 29 0 107 0;
#X connect 30 0 65 0;
#X connect 31 0 66 0;
#X connect 32 0 67 0;
#X connect 33 0 68 0;
#X connect 34 0 69 0;
#X connect 35 0 71 0;
#X connect 36 0 70 0;
#X connect 38 0 113 0;
#X connect 40 0 109 0;
#X connect 42 0 110 0;
#X connect 44 0 111 0;
#X connect 45 0 37 0;
#X connect 46 0 39 0;
#X connect 47 0 41 0;
#X connect 48 0 43 0;
#X connect 49 0 64 0;
#X connect 51 0 112 0;
#X connect 56 0 50 0;
#X connect 57 0 52 0;
#X connect 58 0 54 0;
#X connect 62 0 24 0;
#X connect 62 1 28 0;
#X connect 63 0 114 0;
#X connect 63 1 123 0;
#X connect 64 0 45 0;
#X connect 64 1 38 0;
#X connect 65 0 46 0;
#X connect 65 1 40 0;
#X connect 66 0 47 0;
#X connect 66 1 42 0;
#X connect 67 0 48 0;
#X connect 67 1 44 0;
#X connect 68 0 56 0;
#X connect 68 1 51 0;
#X connect 69 0 127 0;
#X connect 69 1 128 0;
#X connect 70 0 76 0;
#X connect 70 1 92 0;
#X connect 71 0 74 0;
#X connect 71 1 94 0;
#X connect 72 0 14 0;
#X connect 73 0 16 0;
#X connect 74 0 60 0;
#X connect 75 0 100 0;
#X connect 76 0 58 0;
#X connect 77 0 101 0;
#X connect 87 0 73 0;
#X connect 87 1 88 0;
#X connect 88 0 89 0;
#X connect 90 0 85 0;
#X connect 91 0 102 0;
#X connect 92 0 78 0;
#X connect 96 0 97 0;
#X connect 98 0 77 0;
#X connect 98 1 91 0;
#X connect 99 0 75 0;
#X connect 99 1 93 0;
#X connect 101 0 53 0;
#X connect 106 0 86 0;
#X connect 107 0 84 0;
#X connect 108 0 83 0;
#X connect 109 0 82 0;
#X connect 110 0 79 0;
#X connect 111 0 80 0;
#X connect 112 0 81 0;
#X connect 113 0 95 0;
#X connect 114 0 115 0;
#X connect 115 0 116 0;
#X connect 116 0 118 0;
#X connect 117 0 119 0;
#X connect 118 0 27 0;
#X connect 119 0 118 0;
#X connect 119 1 118 1;
#X connect 120 0 99 0;
#X connect 121 0 98 0;
#X connect 122 0 57 0;
#X connect 123 0 124 0;
#X connect 124 0 125 0;
#X connect 125 0 105 0;
#X connect 126 0 96 0;
#X connect 127 0 129 0;
#X connect 128 0 130 0;
#X connect 129 0 122 0;
#X connect 130 0 126 0;
#X restore 370 591 pd clouds 524288 262144;
#X connect 8 0 44 2;
#X connect 10 0 11 0;
#X connect 14 0 10 0;
#X connect 15 0 44 3;
#X connect 16 0 44 4;
#X connect 17 0 44 5;
#X connect 18 0 44 6;
#X connect 19 0 44 7;
#X connect 20 0 44 8;
#X connect 21 0 44 9;
#X connect 22 0 44 10;
#X connect 23 0 44 11;
#X connect 24 0 44 12;
#X connect 25 0 44 14;
#X connect 26 0 44 15;
#X connect 27 0 44 16;
#X connect 28 0 44 17;
#X connect 29 0 44 0;
#X connect 30 0 44 1;
#X connect 31 0 32 0;
#X connect 32 0 33 0;
#X connect 32 1 34 1;
#X connect 32 1 35 1;
#X connect 32 1 37 0;
#X connect 33 0 34 0;
#X connect 33 1 36 0;
#X connect 34 0 15 0;
#X connect 35 0 44 18;
#X connect 36 0 39 0;
#X connect 36 1 41 0;
#X connect 37 0 38 1;
#X connect 38 0 16 0;
#X connect 39 0 38 0;
#X connect 40 0 35 0;
#X connect 41 0 40 0;
#X connect 43 0 44 13;
#X connect 44 0 0 0;
#X connect 44 1 1 0;
