#N canvas 4 50 878 712 10;
#X obj 78 105 list;
#X obj 78 157 route bang symbol;
#X obj 78 231 symbol \$1;
#X obj 78 253 select symbol;
#X obj 78 327 symbol \$2;
#X obj 78 349 select symbol;
#X obj 194 325 symbol;
#X obj 78 305 trigger bang bang;
#X obj 78 209 trigger bang bang;
#X obj 194 234 symbol;
#X obj 250 400 outlet;
#X obj 77 79 inlet;
#X text 299 79 purepd/symbol_argument;
#X obj 322 189 bang;
#X obj 322 233 print;
#X msg 322 211 ERROR : purepd symbol_argument : only accepts symbols
;
#X connect 0 0 1 0;
#X connect 1 0 8 0;
#X connect 1 1 10 0;
#X connect 1 2 13 0;
#X connect 2 0 3 0;
#X connect 3 0 7 0;
#X connect 3 1 10 0;
#X connect 4 0 5 0;
#X connect 5 1 10 0;
#X connect 6 0 5 1;
#X connect 7 0 4 0;
#X connect 7 1 6 0;
#X connect 8 0 2 0;
#X connect 8 1 9 0;
#X connect 9 0 3 1;
#X connect 11 0 0 0;
#X connect 13 0 15 0;
#X connect 15 0 14 0;
