#N canvas 862 50 1020 956 10;
#X obj 99 236 r \$0-lock;
#X obj 85 77 loadbang;
#X obj 497 865 s \$0-lock;
#X obj 60 440 outlet;
#X obj 60 46 inlet from knob;
#X obj 179 46 inlet lock;
#X obj 311 44 inlet from elsewhere;
#X obj 60 347 spigot;
#X msg 497 837 1;
#X obj 99 282 t f f;
#X obj 179 127 s \$0-lock;
#X msg 85 99 0;
#X obj 445 472 once;
#X obj 413 370 spigot;
#X obj 413 392 t f f;
#X floatatom 177 440 8 0 0 1 backup_the_last_received_value_when_we're_locked
- -, f 8;
#X floatatom 413 596 5 0 0 1 then_update_it - -, f 5;
#X floatatom 445 494 5 0 0 1 initialize_the_comparator - -, f 5;
#X obj 497 706 >=;
#X obj 497 759 spigot;
#X obj 497 731 change;
#X msg 603 725 0;
#X msg 446 694 1;
#X obj 497 799 tgl 15 0 empty empty empty 17 7 0 10 -262144 -1 -1 0
1;
#X obj 610 694 loadbang;
#X obj 131 301 == 0;
#X obj 131 320 t f b f;
#X obj 445 565 t b f b b, f 23;
#X text 418 232 Just before we lock \, backup the target value \, init
the once and open the spigot for next pickup. then the first next value
from the pot inits the comparator. next values are compared against
target value \, and we watch for a change from the comparator. When
a change happens \, we unlock.;
#X obj 550 616 f;
#X obj 177 406 f;
#X obj 60 141 t f f f f;
#X obj 177 378 sel 1;
#X obj 366 152 s \$0-lock;
#X msg 366 124 0;
#X obj 311 188 once;
#X text 346 190 init non-saved knobs;
#X text 573 848 baptiste.chatel@gmail.com;
#X text 578 616 target value;
#X obj 99 258 tgl 15 0 empty empty empty 17 7 0 10 -262144 -1 -1 0
1;
#X floatatom 550 640 8 0 0 0 - - -, f 8;
#X text 670 642 be sure we can always be inferior to lowest value and
superior to highest value, f 36;
#X obj 550 665 clip 0.001 0.997;
#X obj 311 92 t f f b;
#X connect 0 0 39 0;
#X connect 1 0 11 0;
#X connect 4 0 31 0;
#X connect 5 0 10 0;
#X connect 6 0 43 0;
#X connect 7 0 3 0;
#X connect 8 0 2 0;
#X connect 9 0 7 1;
#X connect 9 1 25 0;
#X connect 11 0 10 0;
#X connect 12 0 17 0;
#X connect 13 0 14 0;
#X connect 14 0 16 0;
#X connect 14 1 12 0;
#X connect 15 0 29 0;
#X connect 16 0 18 0;
#X connect 17 0 27 0;
#X connect 18 0 20 0;
#X connect 19 0 23 0;
#X connect 20 0 19 0;
#X connect 21 0 19 1;
#X connect 22 0 19 1;
#X connect 23 0 8 0;
#X connect 24 0 21 0;
#X connect 25 0 26 0;
#X connect 26 0 13 1;
#X connect 26 1 12 1;
#X connect 26 2 32 0;
#X connect 27 0 22 0;
#X connect 27 1 18 0;
#X connect 27 2 29 0;
#X connect 27 3 21 0;
#X connect 29 0 40 0;
#X connect 30 0 15 0;
#X connect 31 0 7 0;
#X connect 31 2 13 0;
#X connect 31 3 30 1;
#X connect 32 0 30 0;
#X connect 34 0 33 0;
#X connect 35 0 30 1;
#X connect 39 0 9 0;
#X connect 40 0 42 0;
#X connect 42 0 18 1;
#X connect 43 0 35 0;
#X connect 43 1 29 0;
#X connect 43 2 34 0;
