#N canvas 5 50 450 300 10;
#X obj 55 21 inlet;
#X obj 162 104 inlet;
#X text 204 105 valeur seuil;
#X obj 184 291 outlet;
#X text 96 22 data stream;
#X obj 87 203 -;
#X obj 103 174 f;
#X obj 87 255 >= \$1;
#X obj 55 84 t f f;
#X obj 55 290 spigot;
#X obj 87 229 abs;
#X text 234 180 puremapping/threshold;
#X connect 0 0 8 0;
#X connect 1 0 7 1;
#X connect 5 0 10 0;
#X connect 6 0 3 0;
#X connect 6 0 5 1;
#X connect 7 0 9 1;
#X connect 8 0 9 0;
#X connect 8 1 5 0;
#X connect 9 0 6 0;
#X connect 10 0 7 0;
