#N canvas 1053 674 1254 647 10;
#X declare -path patchmenu;
#N canvas 1156 96 1315 848 mapping 0;
#X text 30 83 Page 1;
#X text 31 313 Page 2;
#X text 32 529 Page 3;
#X text 33 733 Page 4;
#X obj 164 327 * 2000;
#X obj 164 349 i;
#X obj 219 348 s vca-attack;
#X obj 364 325 * 2000;
#X obj 364 347 i;
#X obj 419 346 s vca-decay;
#X obj 563 345 i;
#X obj 771 328 * 2000;
#X obj 771 348 i;
#X obj 563 325 * 100;
#X obj 618 346 s vca-sustain;
#X obj 826 349 s vca-release;
#X obj 561 578 i;
#X obj 769 581 i;
#X obj 161 490 r p3k1;
#X obj 363 491 r p3k2;
#X obj 562 491 r p3k3;
#X obj 770 494 r p3k4;
#X obj 164 305 r p2k1;
#X obj 365 302 r p2k2;
#X obj 564 302 r p2k3;
#X obj 772 304 r p2k4;
#X msg 164 371 \; p2s1 1: VCA Attack \$1 ms;
#X msg 364 368 \; p2s2 2: VCA Decay \$1 ms;
#X msg 563 368 \; p2s3 3: VCA Sustain \$1 %;
#X msg 771 371 \; p2s4 4: VCA Rel \$1 ms;
#X obj 158 111 i;
#X obj 158 25 r p1k1;
#X obj 774 33 r p1k4;
#X obj 356 103 i;
#X obj 354 23 r p1k2;
#X obj 356 81 * 100;
#X obj 774 76 i;
#X obj 971 124 s transpose;
#X msg 774 126 \; p1s4 4: Transpose \$1;
#X obj 622 6 r p1k3;
#X obj 393 701 * 100;
#X obj 393 727 i;
#X obj 179 732 i;
#X obj 605 729 i;
#X obj 806 727 i;
#X obj 602 688 * 100;
#X obj 178 663 r p4k1;
#X obj 394 667 r p4k2;
#X obj 604 655 r p4k3;
#X obj 805 653 r p4k4;
#X obj 1054 359 r page-ready;
#X obj 1150 358 r seq-display;
#X obj 1144 443 list;
#X obj 1150 383 t b a;
#X obj 1145 412 f;
#X obj 1144 471 route 1 2 3 4;
#X obj 1165 508 s screenLine5;
#X text 1054 305 put the sequencer messages;
#X text 1055 320 on all pages except menu;
#X obj 161 585 i;
#X obj 161 516 t f f;
#X obj 161 538 *;
#X obj 216 584 s cutoff;
#X msg 161 607 \; p3s1 1: Cutoff \$1 Hz;
#X obj 364 582 i;
#X obj 364 560 * 100;
#X obj 431 583 s reson;
#X obj 431 559 * 3.7;
#X obj 616 579 s vcf-env;
#X obj 561 558 * 5;
#X msg 364 604 \; p3s2 2: Resonance \$1 %;
#X obj 213 110 s osc-shape;
#X msg 158 133 \; p1s1 1: Shape \$1;
#N canvas 1146 602 450 300 constrain 0;
#X obj 75 44 inlet value;
#X obj 76 215 outlet;
#X obj 76 121 max 0;
#X obj 77 160 min 1;
#X connect 0 0 2 0;
#X connect 2 0 3 0;
#X connect 3 0 1 0;
#X restore 158 51 pd constrain;
#X obj 157 81 * 47;
#X msg 356 125 \; p1s2 2: Colour \$1 %;
#X obj 423 104 s osc-colour;
#N canvas 1146 602 450 300 constrain 0;
#X obj 75 44 inlet value;
#X obj 76 215 outlet;
#X obj 76 121 max 0;
#X obj 77 160 min 1;
#X connect 0 0 2 0;
#X connect 2 0 3 0;
#X connect 3 0 1 0;
#X restore 355 48 pd constrain;
#X obj 622 104 i;
#X obj 622 82 * 100;
#N canvas 1146 602 450 300 constrain 0;
#X obj 75 44 inlet value;
#X obj 76 215 outlet;
#X obj 76 121 max 0;
#X obj 77 160 min 1;
#X connect 0 0 2 0;
#X connect 2 0 3 0;
#X connect 3 0 1 0;
#X restore 621 49 pd constrain;
#X obj 689 105 s osc-timbre;
#X msg 622 126 \; p1s3 3: Timbre \$1 %;
#X obj 179 706 * 100;
#X obj 472 705 s rtime;
#X obj 234 707 s ramt;
#X msg 392 759 \; p4s2 2: Time \$1 %;
#X obj 681 693 s rdiff;
#X msg 605 758 \; p4s3 3: Diffusion \$1 %;
#X obj 803 686 * 100;
#X obj 864 691 s rcutoff;
#X msg 806 756 \; p4s4 4: Cutoff \$1 %;
#X msg 561 601 \; p3s3 3: VCF Env \$1;
#X msg 769 604 \; p3s4 4: VCF Env Amt \$1 %;
#X obj 769 561 * 100;
#X obj 814 580 s vcf-env-amt;
#X obj 161 563 * 15000;
#X msg 179 760 \; p4s1 1: Amount \$1 %;
#X obj 774 54 * 48;
#X obj 774 98 - 24;
#X connect 4 0 5 0;
#X connect 4 0 6 0;
#X connect 5 0 26 0;
#X connect 7 0 8 0;
#X connect 7 0 9 0;
#X connect 8 0 27 0;
#X connect 10 0 28 0;
#X connect 11 0 12 0;
#X connect 11 0 15 0;
#X connect 12 0 29 0;
#X connect 13 0 10 0;
#X connect 13 0 14 0;
#X connect 16 0 92 0;
#X connect 16 0 68 0;
#X connect 17 0 93 0;
#X connect 18 0 60 0;
#X connect 19 0 65 0;
#X connect 19 0 67 0;
#X connect 20 0 69 0;
#X connect 21 0 94 0;
#X connect 21 0 95 0;
#X connect 22 0 4 0;
#X connect 23 0 7 0;
#X connect 24 0 13 0;
#X connect 25 0 11 0;
#X connect 30 0 72 0;
#X connect 31 0 73 0;
#X connect 32 0 98 0;
#X connect 33 0 75 0;
#X connect 34 0 77 0;
#X connect 35 0 33 0;
#X connect 36 0 99 0;
#X connect 39 0 80 0;
#X connect 40 0 41 0;
#X connect 41 0 86 0;
#X connect 42 0 97 0;
#X connect 43 0 88 0;
#X connect 44 0 91 0;
#X connect 45 0 43 0;
#X connect 46 0 83 0;
#X connect 46 0 85 0;
#X connect 47 0 40 0;
#X connect 47 0 84 0;
#X connect 48 0 45 0;
#X connect 48 0 87 0;
#X connect 49 0 89 0;
#X connect 49 0 90 0;
#X connect 50 0 54 0;
#X connect 51 0 53 0;
#X connect 52 0 55 0;
#X connect 53 0 54 0;
#X connect 53 1 52 1;
#X connect 54 0 52 0;
#X connect 55 0 56 0;
#X connect 55 1 56 0;
#X connect 55 2 56 0;
#X connect 55 3 56 0;
#X connect 59 0 63 0;
#X connect 60 0 61 0;
#X connect 60 1 61 1;
#X connect 61 0 96 0;
#X connect 64 0 70 0;
#X connect 65 0 64 0;
#X connect 67 0 66 0;
#X connect 69 0 16 0;
#X connect 73 0 74 0;
#X connect 73 0 71 0;
#X connect 74 0 30 0;
#X connect 77 0 35 0;
#X connect 77 0 76 0;
#X connect 78 0 82 0;
#X connect 79 0 78 0;
#X connect 80 0 79 0;
#X connect 80 0 81 0;
#X connect 83 0 42 0;
#X connect 89 0 44 0;
#X connect 94 0 17 0;
#X connect 96 0 59 0;
#X connect 96 0 62 0;
#X connect 98 0 36 0;
#X connect 99 0 37 0;
#X connect 99 0 38 0;
#X restore 23 269 pd mapping;
#X obj 20 27 declare -path patchmenu;
#X obj 20 143 patchmenu;
#X obj 52 121 s enableSubMenu;
#X obj 20 49 loadbang;
#X msg 20 121 0;
#X obj 20 98 t b b;
#X obj 20 73 versioncheck 2;
#X obj 563 543 throw~ outL;
#X obj 743 541 throw~ outR;
#X obj 645 346 *~ 0.3;
#X obj 587 249 voice;
#X obj 631 163 pack 0 0 0;
#X obj 638 189 route 1 2 3 4;
#X obj 638 83 unpack 0 0;
#X obj 628 45 r notes;
#X obj 782 47 r notes_seq;
#X obj 688 46 r zero_notes;
#X obj 631 107 - 24;
#X obj 630 139 poly 3 1;
#X obj 880 47 sequencer2;
#X msg 19 167 \; screenLine1 1) Osc \; screenLine2 2) Vca \; screenLine3
3) Vcf \; screenLine4 4) Reverb \; screenLine5 <-- HOME \;;
#X obj 656 429 rngs_reverb~;
#X obj 765 363 r ramt;
#X obj 857 332 r rdiff;
#X obj 1025 331 r rtime;
#X obj 920 332 r rcutoff;
#X msg 853 370 diffusion \$1;
#X msg 1025 371 time \$1;
#X obj 177 38 bng 15 250 50 0 empty empty empty 17 7 0 10 -262144 -1
-1;
#X obj 641 249 voice;
#X obj 693 247 voice;
#X obj 745 248 voice;
#X msg 940 371 lp \$1;
#X connect 2 0 21 0;
#X connect 4 0 7 0;
#X connect 5 0 2 0;
#X connect 6 0 5 0;
#X connect 6 1 3 0;
#X connect 7 0 6 0;
#X connect 10 0 22 0;
#X connect 10 0 22 1;
#X connect 11 0 10 0;
#X connect 12 0 13 0;
#X connect 13 0 11 0;
#X connect 13 1 30 0;
#X connect 13 2 31 0;
#X connect 13 3 32 0;
#X connect 14 0 18 0;
#X connect 14 1 19 1;
#X connect 15 0 14 0;
#X connect 16 0 14 0;
#X connect 17 0 14 0;
#X connect 18 0 19 0;
#X connect 19 0 12 0;
#X connect 19 1 12 1;
#X connect 19 2 12 2;
#X connect 22 0 8 0;
#X connect 22 1 9 0;
#X connect 23 0 22 2;
#X connect 24 0 27 0;
#X connect 25 0 28 0;
#X connect 26 0 33 0;
#X connect 27 0 22 0;
#X connect 28 0 22 0;
#X connect 29 0 6 0;
#X connect 30 0 10 0;
#X connect 31 0 10 0;
#X connect 32 0 10 0;
#X connect 33 0 22 0;
