#N canvas 1120 281 1572 758 10;
#X obj 20 49 loadbang;
#X obj 209 629 throw~ outL;
#X obj 389 627 throw~ outR;
#X obj 291 432 *~ 0.3;
#X obj 233 335 voice;
#X obj 276 249 pack 0 0 0;
#X obj 276 273 route 1 2 3 4;
#X obj 284 169 unpack 0 0;
#X obj 274 131 r notes;
#X obj 428 133 r notes_seq;
#X obj 334 132 r zero_notes;
#X obj 277 193 - 24;
#X obj 276 225 poly 3 1;
#X obj 526 133 sequencer2;
#X obj 302 515 rngs_reverb~;
#X msg 499 456 diffusion \$1;
#X msg 671 457 time \$1;
#X msg 586 457 lp \$1;
#N canvas 976 400 1529 830 params 0;
#X msg 195 426 page pg_vcf Vcf f_cutoff f_reson f_env f_env_amt;
#X msg 197 306 page pg_vca Vca e_attack e_decay e_sustain e_release
;
#X msg 198 186 page pg_osc Oscillator o_shape o_colour o_timbre o_transpose
;
#X msg 198 98 param float o_shape Shape 0 47 0;
#X msg 198 120 param pct o_colour Colour 0 100 50;
#X msg 198 141 param pct o_timbre Timbre 0 100 50;
#X obj 91 97 t b b b b b, f 16;
#X obj 90 215 t b b b b b, f 16;
#X msg 197 259 param pct e_sustain Sustain 0 100 50;
#X msg 198 282 param msec e_release Release 0 2000 50;
#X msg 197 216 param msec e_attack Attack 0 2000 1;
#X msg 197 238 param msec e_decay Decay 0 2000 500;
#X obj 88 334 t b b b b b, f 16;
#X msg 195 335 param hz f_cutoff Cutoff 0 15000 10000;
#X msg 195 357 param pct f_reson Resonance 0 100 0;
#X msg 196 401 param pct f_env_amt E.Amount 0 100 0;
#X msg 195 378 param float f_env Env.Type 0 5 0;
#X obj 86 451 t b b b b b, f 16;
#X msg 193 452 param pct r_amt Amount 0 100 0;
#X msg 193 474 param pct r_time Time 0 100 50;
#X msg 193 495 param pct r_diff Diffusion 0 100 20;
#X msg 194 518 param pct r_cutoff Cutoff 0 100 100;
#X msg 192 542 page pg_rvb Reverb r_amt r_time r_diff r_cutoff;
#X obj 23 15 loadbang;
#X obj 60 59 t b b b b;
#X obj 900 80 r seq-display;
#X obj 894 165 list;
#X obj 900 105 t b a;
#X obj 895 134 f;
#X obj 894 193 route 1 2 3 4;
#X obj 915 230 s screenLine5;
#X text 804 27 put the sequencer messages;
#X text 805 42 on all pages except menu;
#X obj 24 38 t b b;
#X obj 98 706 oKontrol;
#X obj 794 483 r knob1Raw;
#X msg 794 519 knob1Raw \$1;
#X obj 800 357 hsl 128 15 0 1024 0 0 knob1Raw empty knob1 -2 -8 0 10
-262144 -1 -1 0 1;
#X obj 798 389 hsl 128 15 0 1024 0 0 knob3Raw empty knob3 -2 -8 0 10
-262144 -1 -1 0 1;
#X obj 953 356 hsl 128 15 0 1024 0 0 knob2Raw empty knob2 -2 -8 0 10
-262144 -1 -1 0 1;
#X obj 953 390 hsl 128 15 0 1024 0 0 knob4Raw empty knob4 -2 -8 0 10
-262144 -1 -1 0 1;
#X obj 876 482 r knob2Raw;
#X obj 960 481 r knob3Raw;
#X obj 1049 481 r knob4Raw;
#X msg 1049 517 knob4Raw \$1;
#X msg 960 517 knob3Raw \$1;
#X msg 876 518 knob2Raw \$1;
#X obj 829 602 oKontrolOrganelle~ 9000;
#X obj 1137 481 r enc;
#X msg 1137 517 enc \$1;
#X msg 1226 517 encbut \$1;
#X obj 1226 481 r encbut;
#X msg 199 164 param semi o_transpose Transpose -24 24 0;
#X connect 0 0 34 0;
#X connect 1 0 34 0;
#X connect 2 0 34 0;
#X connect 3 0 34 0;
#X connect 4 0 34 0;
#X connect 5 0 34 0;
#X connect 6 0 2 0;
#X connect 6 1 52 0;
#X connect 6 2 5 0;
#X connect 6 3 4 0;
#X connect 6 4 3 0;
#X connect 7 0 1 0;
#X connect 7 1 9 0;
#X connect 7 2 8 0;
#X connect 7 3 11 0;
#X connect 7 4 10 0;
#X connect 8 0 34 0;
#X connect 9 0 34 0;
#X connect 10 0 34 0;
#X connect 11 0 34 0;
#X connect 12 0 0 0;
#X connect 12 1 15 0;
#X connect 12 2 16 0;
#X connect 12 3 14 0;
#X connect 12 4 13 0;
#X connect 13 0 34 0;
#X connect 14 0 34 0;
#X connect 15 0 34 0;
#X connect 16 0 34 0;
#X connect 17 0 22 0;
#X connect 17 1 21 0;
#X connect 17 2 20 0;
#X connect 17 3 19 0;
#X connect 17 4 18 0;
#X connect 18 0 34 0;
#X connect 19 0 34 0;
#X connect 20 0 34 0;
#X connect 21 0 34 0;
#X connect 22 0 34 0;
#X connect 23 0 33 0;
#X connect 24 0 17 0;
#X connect 24 1 12 0;
#X connect 24 2 7 0;
#X connect 24 3 6 0;
#X connect 25 0 27 0;
#X connect 26 0 29 0;
#X connect 27 0 28 0;
#X connect 27 1 26 1;
#X connect 28 0 26 0;
#X connect 29 0 30 0;
#X connect 29 1 30 0;
#X connect 29 2 30 0;
#X connect 29 3 30 0;
#X connect 33 0 24 0;
#X connect 35 0 36 0;
#X connect 36 0 47 0;
#X connect 41 0 46 0;
#X connect 42 0 45 0;
#X connect 43 0 44 0;
#X connect 44 0 47 0;
#X connect 45 0 47 0;
#X connect 46 0 47 0;
#X connect 48 0 49 0;
#X connect 49 0 47 0;
#X connect 50 0 47 0;
#X connect 51 0 50 0;
#X connect 52 0 34 0;
#X restore 38 126 pd params;
#X obj 442 386 r r_amt;
#X obj 503 386 r r_diff;
#X obj 566 386 r r_cutoff;
#X obj 671 386 r r_time;
#X obj 437 424 / 100;
#X obj 566 408 / 100;
#X obj 503 408 / 100;
#X obj 671 408 / 100;
#X obj 287 335 voice;
#X obj 339 335 voice;
#X obj 391 335 voice;
#X connect 3 0 14 0;
#X connect 3 0 14 1;
#X connect 4 0 3 0;
#X connect 5 0 6 0;
#X connect 6 0 4 0;
#X connect 6 1 27 0;
#X connect 6 2 28 0;
#X connect 6 3 29 0;
#X connect 7 0 11 0;
#X connect 7 1 12 1;
#X connect 8 0 7 0;
#X connect 9 0 7 0;
#X connect 10 0 7 0;
#X connect 11 0 12 0;
#X connect 12 0 5 0;
#X connect 12 1 5 1;
#X connect 12 2 5 2;
#X connect 14 0 1 0;
#X connect 14 1 2 0;
#X connect 15 0 14 0;
#X connect 16 0 14 0;
#X connect 17 0 14 0;
#X connect 19 0 23 0;
#X connect 20 0 25 0;
#X connect 21 0 24 0;
#X connect 22 0 26 0;
#X connect 23 0 14 2;
#X connect 24 0 17 0;
#X connect 25 0 15 0;
#X connect 26 0 16 0;
#X connect 27 0 3 0;
#X connect 28 0 3 0;
#X connect 29 0 3 0;
