#N canvas 622 257 1859 1084 10;
#X obj 63 384 r r_mix;
#X msg 7 53 \; pd dsp 1;
#X obj 14 8 loadbang;
#X obj 65 333 oKontrol;
#X obj 101 94 t b b b b b b b;
#X obj 179 1 bng 15 250 50 0 empty empty empty 17 7 0 10 -262144 -1
-1;
#X obj 153 385 r r_size;
#X obj 248 387 r r_depth;
#X obj 62 437 r r_cutoff;
#X obj 154 438 r r_active;
#X obj 249 440 r r_type;
#X obj 1059 159 r knob1Raw;
#X msg 1059 195 knob1Raw \$1;
#X obj 1065 33 hsl 128 15 0 1024 0 0 knob1Raw empty knob1 -2 -8 0 10
-262144 -1 -1 0 1;
#X obj 1063 65 hsl 128 15 0 1024 0 0 knob3Raw empty knob3 -2 -8 0 10
-262144 -1 -1 0 1;
#X obj 1218 32 hsl 128 15 0 1024 0 0 knob2Raw empty knob2 -2 -8 0 10
-262144 -1 -1 0 1;
#X obj 1218 66 hsl 128 15 0 1024 0 0 knob4Raw empty knob4 -2 -8 0 10
-262144 -1 -1 0 1;
#X obj 1141 158 r knob2Raw;
#X obj 1225 157 r knob3Raw;
#X obj 1314 157 r knob4Raw;
#X msg 1314 193 knob4Raw \$1;
#X msg 1225 193 knob3Raw \$1;
#X msg 1141 194 knob2Raw \$1;
#X msg 26 139 page page1 reverb r_mix r_size r_depth r_cutoff r_active
r_type, f 8;
#X obj 500 334 oKontrol;
#X obj 536 95 t b b b b b b b;
#X obj 547 4 bng 15 250 50 0 empty empty empty 17 7 0 10 -262144 -1
-1;
#X msg 461 140 page page2 chorus c_mix c_size c_depth c_cutoff c_active
c_type, f 8;
#X obj 496 385 r c_mix;
#X obj 588 386 r c_size;
#X obj 683 388 r c_depth;
#X obj 496 438 r c_cutoff;
#X obj 589 439 r c_active;
#X obj 684 441 r c_type;
#X obj 684 467 print c type;
#X obj 588 466 print c active;
#X obj 496 464 print c cutoff;
#X obj 496 411 print c mix;
#X obj 587 413 print c size;
#X obj 683 414 print c depth;
#X obj 63 410 print r mix;
#X obj 152 412 print r size;
#X obj 248 413 print r depth;
#X obj 249 466 print r type;
#X obj 153 465 print r active;
#X obj 62 463 print r cutoff;
#X obj 935 31 nbx 5 14 0 5 0 0 page empty page 0 -8 0 10 -262144 -1
-1 0 256;
#X obj 937 158 r page;
#X msg 936 195 page \$1;
#X obj 844 32 bng 15 250 50 0 empty empty empty 17 7 0 10 -262144 -1
-1;
#X msg 844 52 connect 9001;
#X obj 1094 278 oKontrolOrganelle~ 9000;
#X msg 164 161 param pct r_mix mix 0 100 50;
#X msg 164 191 param msec r_size size 10 1000 200;
#X msg 163 213 param pct r_depth depth 0 100 10;
#X msg 163 240 param hz r_cutoff cutoff 0 15000 15000;
#X msg 166 267 param bool r_active active 0 1 1;
#X msg 165 292 param float r_type type 0 5 0;
#X msg 599 162 param pct c_mix mix 0 100 50;
#X msg 599 192 param msec c_size size 10 1000 200;
#X msg 598 214 param pct c_depth depth 0 100 10;
#X msg 598 241 param hz c_cutoff cutoff 0 15000 15000;
#X msg 601 268 param bool c_active active 0 1 1;
#X msg 600 293 param float c_type type 0 5 0;
#X obj 175 796 oKontrol;
#X obj 211 557 t b b b b b b b;
#X msg 136 602 page page3 atest a_bool a_pct a_float a_time, f 8;
#X obj 171 847 r a_bool;
#X obj 358 850 r a_float;
#X obj 263 848 r a_pct;
#X obj 171 873 print a_bool;
#X obj 262 875 print a_pct;
#X obj 171 900 r a_time;
#X obj 171 926 print a_time;
#X obj 358 876 print a_float;
#X msg 273 676 param float a_float float 100 1000 10;
#X msg 274 624 param bool a_bool bool 0;
#X msg 273 703 param msec a_time time 5 3000 1500;
#X msg 274 654 param pct a_pct pct 10 100 50;
#X obj 1402 157 r enc;
#X msg 1402 193 enc \$1;
#X msg 1491 193 encbut \$1;
#X obj 1491 157 r encbut;
#X connect 0 0 40 0;
#X connect 2 0 1 0;
#X connect 2 0 4 0;
#X connect 2 0 25 0;
#X connect 2 0 65 0;
#X connect 4 0 23 0;
#X connect 4 1 57 0;
#X connect 4 2 56 0;
#X connect 4 3 55 0;
#X connect 4 4 54 0;
#X connect 4 5 53 0;
#X connect 4 6 52 0;
#X connect 5 0 4 0;
#X connect 6 0 41 0;
#X connect 7 0 42 0;
#X connect 8 0 45 0;
#X connect 9 0 44 0;
#X connect 10 0 43 0;
#X connect 11 0 12 0;
#X connect 12 0 51 0;
#X connect 17 0 22 0;
#X connect 18 0 21 0;
#X connect 19 0 20 0;
#X connect 20 0 51 0;
#X connect 21 0 51 0;
#X connect 22 0 51 0;
#X connect 23 0 3 0;
#X connect 25 0 27 0;
#X connect 25 1 63 0;
#X connect 25 2 62 0;
#X connect 25 3 61 0;
#X connect 25 4 60 0;
#X connect 25 5 59 0;
#X connect 25 6 58 0;
#X connect 26 0 25 0;
#X connect 27 0 24 0;
#X connect 28 0 37 0;
#X connect 29 0 38 0;
#X connect 30 0 39 0;
#X connect 31 0 36 0;
#X connect 32 0 35 0;
#X connect 33 0 34 0;
#X connect 47 0 48 0;
#X connect 48 0 51 0;
#X connect 49 0 50 0;
#X connect 50 0 51 0;
#X connect 52 0 3 0;
#X connect 53 0 3 0;
#X connect 54 0 3 0;
#X connect 55 0 3 0;
#X connect 56 0 3 0;
#X connect 57 0 3 0;
#X connect 58 0 24 0;
#X connect 59 0 24 0;
#X connect 60 0 24 0;
#X connect 61 0 24 0;
#X connect 62 0 24 0;
#X connect 63 0 24 0;
#X connect 65 0 66 0;
#X connect 65 3 77 0;
#X connect 65 4 75 0;
#X connect 65 5 78 0;
#X connect 65 6 76 0;
#X connect 66 0 64 0;
#X connect 67 0 70 0;
#X connect 68 0 74 0;
#X connect 69 0 71 0;
#X connect 72 0 73 0;
#X connect 75 0 64 0;
#X connect 76 0 64 0;
#X connect 77 0 64 0;
#X connect 78 0 64 0;
#X connect 79 0 80 0;
#X connect 80 0 51 0;
#X connect 81 0 51 0;
#X connect 82 0 81 0;
