#N canvas 379 110 1450 853 10;
#X obj 862 408 bng 15 250 50 0 empty empty empty 17 7 0 10 -262144
-1 -1;
#X obj 862 508 qlist;
#X obj 216 415 f;
#X obj 216 362 sel 1;
#X obj 920 408 bng 15 250 50 0 empty empty empty 17 7 0 10 -262144
-1 -1;
#X msg 920 447 rewind;
#X obj 930 509 bng 15 250 50 0 empty empty empty 17 7 0 10 -262144
-1 -1;
#X obj 1132 166 r notes;
#X obj 1068 461 timer;
#X floatatom 1181 584 10 0 0 0 - - -, f 10;
#X obj 1108 335 unpack;
#X obj 1045 584 pack s 0 s 0 0;
#X msg 1030 511 add;
#X obj 1045 623 route list;
#X msg 1114 495 symbol notes_seq;
#X obj 1068 379 t b b b b f;
#X obj 1132 252 spigot 0;
#X obj 1215 166 r recenable;
#X obj 1215 222 tgl 15 0 empty empty empty 17 7 0 10 -262144 -1 -1
0 1;
#X msg 979 461 clear;
#X obj 1265 329 f;
#X obj 1363 333 + 1;
#X obj 1222 302 bng 15 250 50 0 empty empty empty 17 7 0 10 -262144
-1 -1;
#X floatatom 1265 373 5 0 0 0 - - -, f 5;
#X obj 1283 264 sel 1;
#X msg 1283 289 0;
#X obj 1265 408 sel 0;
#X obj 1168 379 t f b;
#X obj 1047 223 bng 15 250 50 0 empty empty empty 17 7 0 10 -262144
-1 -1;
#X msg 1047 248 0 0;
#X obj 123 273 r aux;
#X floatatom 123 387 5 0 0 0 - - -, f 5;
#X obj 123 418 sel 1;
#X obj 123 477 v state;
#X obj 123 444 bng 15 250 50 0 empty empty empty 17 7 0 10 -262144
-1 -1;
#X obj 123 591 sel 0 1 2 3, f 54;
#X obj 123 775 s start;
#X obj 123 666 t b b;
#X msg 155 701 1;
#X obj 155 723 v state;
#X obj 216 642 t b b;
#X obj 248 699 v state;
#X obj 216 743 s stop;
#X obj 860 304 r start;
#X obj 920 370 r stop;
#X msg 248 677 0;
#X obj 299 529 v state;
#X msg 299 507 2;
#X obj 201 322 t f f;
#X obj 216 561 s recenable;
#X obj 216 441 sel 1;
#X obj 268 415 bng 15 250 50 0 empty empty empty 17 7 0 10 -262144
-1 -1;
#X obj 310 643 t b b;
#X obj 342 700 v state;
#X obj 310 745 s stop;
#X msg 342 678 0;
#X obj 463 695 v state;
#X obj 404 646 t b b b;
#X msg 463 673 1;
#X obj 427 720 s end_seq;
#X obj 1027 158 r end_seq;
#X obj 1322 492 v state;
#X msg 1322 470 3;
#X obj 1296 526 s record;
#X msg 1215 193 1;
#X obj 1278 199 r start;
#X obj 1346 197 r stop;
#X msg 1300 233 0;
#X obj 216 469 t b b b;
#X obj 239 534 s stop;
#X obj 404 748 s start;
#X obj 332 87 r start;
#X obj 480 90 r stop;
#X obj 635 88 r recenable;
#X obj 789 87 r record;
#X obj 585 674 r notes_seq;
#X obj 585 741 bag;
#X msg 599 713 flush;
#X obj 585 765 pack 0 0;
#X obj 585 791 s zero_notes;
#X obj 683 674 r stop;
#X obj 524 149 s led;
#X msg 524 124 0;
#X obj 385 142 s led;
#X obj 864 148 s led;
#X obj 694 147 s led;
#X msg 694 122 6;
#X msg 332 173 Sequencer: Playing;
#X msg 480 173 Sequencer: Stopped;
#X msg 635 173 Sequencer: Enabled;
#X msg 789 172 Sequencer: Recording;
#X text 95 10 uses the aux button to start / stop / record a sequence.
;
#X msg 385 118 3;
#X msg 864 123 1;
#X text 528 11 states are: 0 = stopped \, 1 = playing \, 2 = rec enabled
\, 3 = recording, f 70;
#X text 317 66 Controls LED & Screen Infomation:;
#X obj 216 387 del 500;
#X text 96 250 Controls State With Aux Button;
#X text 1016 138 Record Notes To List. First note starts recording.
;
#X text 534 653 Kills notes left on by sequence.;
#N canvas 7 50 1006 722 midi-control 0;
#X obj 95 121 midirealtimein;
#X obj 95 177 sel 248 250 251 252, f 22;
#X obj 260 272 v state;
#X obj 260 239 bng 15 250 50 0 empty empty empty 17 7 0 10 -262144
-1 -1;
#X obj 260 355 t b b;
#X obj 292 412 v state;
#X obj 260 456 s stop;
#X msg 292 390 0;
#X obj 369 364 t b b;
#X obj 401 421 v state;
#X obj 369 466 s stop;
#X msg 401 399 0;
#X obj 541 417 v state;
#X obj 482 368 t b b b;
#X msg 541 395 1;
#X obj 505 442 s end_seq;
#X obj 482 470 s start;
#X obj 260 309 sel 1 2 3, f 37;
#X obj 69 276 v state;
#X obj 69 243 bng 15 250 50 0 empty empty empty 17 7 0 10 -262144 -1
-1;
#X obj 69 313 sel 0 1 2 3, f 12;
#X text 78 509 states are: 0 = stopped \, 1 = playing \, 2 = rec enabled
\, 3 = recording, f 70;
#X obj 69 460 s start;
#X obj 69 351 t b b;
#X msg 101 386 1;
#X obj 101 408 v state;
#X text 262 143 MIDI 248 = clock \; 250 = start \; 251 = continue \;
252 = stop, f 18;
#X text 23 15 This subpatch handles MIDI commands for starting/stopping
sequencer., f 69;
#X connect 0 0 1 0;
#X connect 1 1 19 0;
#X connect 1 2 19 0;
#X connect 1 3 3 0;
#X connect 2 0 17 0;
#X connect 3 0 2 0;
#X connect 4 0 6 0;
#X connect 4 1 7 0;
#X connect 7 0 5 0;
#X connect 8 0 10 0;
#X connect 8 1 11 0;
#X connect 11 0 9 0;
#X connect 13 0 16 0;
#X connect 13 1 15 0;
#X connect 13 2 14 0;
#X connect 14 0 12 0;
#X connect 17 0 4 0;
#X connect 17 1 8 0;
#X connect 17 2 13 0;
#X connect 18 0 20 0;
#X connect 19 0 18 0;
#X connect 20 0 23 0;
#X connect 23 0 22 0;
#X connect 23 1 24 0;
#X connect 24 0 25 0;
#X restore 113 164 pd midi-control;
#X obj 930 635 t b b;
#X msg 930 679 \; led 7;
#X obj 993 705 v state;
#X obj 993 729 sel 0 1 2 3, f 33;
#X msg 993 756 \; led 0;
#X msg 1050 755 \; led 3;
#X msg 1107 756 \; led 6;
#X msg 1164 756 \; led 1;
#X obj 993 681 delay 100;
#X text 893 795 Flashes LED at loop & sets color after sequence stop
;
#X obj 1265 440 t b b b;
#X msg 1266 569 1;
#X obj 860 348 spigot 0;
#X obj 1267 602 s something-recorded;
#X obj 921 304 r something-recorded;
#X text 865 278 avoid playing 0 len seq;
#X obj 716 403 r tempo;
#X msg 715 434 tempo \$1;
#X obj 1012 192 t b b;
#X obj 525 378 loadbang;
#X obj 523 415 t b b;
#X msg 509 472 1;
#X obj 509 494 s something-recorded;
#X msg 553 440 read ./sequence.txt;
#N canvas 4 50 450 300 midi-out 0;
#X obj 99 100 r notes_seq;
#X obj 114 172 noteout 1;
#X obj 114 132 unpack;
#X obj 195 104 r zero_notes;
#X text 120 22 send the sequence out ch 1;
#X connect 0 0 2 0;
#X connect 2 0 1 0;
#X connect 2 1 1 1;
#X connect 3 0 2 0;
#X restore 112 128 pd midi-out;
#X obj 758 674 r quitting;
#X msg 609 344 write /tmp/state/sequence.txt;
#X obj 580 247 send seq-display;
#X obj 555 90 loadbang;
#X connect 0 0 1 0;
#X connect 1 1 6 0;
#X connect 2 0 50 0;
#X connect 3 0 96 0;
#X connect 4 0 5 0;
#X connect 5 0 1 0;
#X connect 6 0 0 0;
#X connect 6 0 101 0;
#X connect 7 0 16 0;
#X connect 8 0 9 0;
#X connect 8 0 11 1;
#X connect 10 0 15 0;
#X connect 10 1 27 0;
#X connect 11 0 13 0;
#X connect 12 0 11 0;
#X connect 13 0 1 0;
#X connect 14 0 11 2;
#X connect 15 0 8 0;
#X connect 15 1 12 0;
#X connect 15 2 8 1;
#X connect 15 3 14 0;
#X connect 15 4 11 3;
#X connect 16 0 10 0;
#X connect 17 0 64 0;
#X connect 18 0 16 1;
#X connect 18 0 24 0;
#X connect 19 0 1 0;
#X connect 20 0 21 0;
#X connect 20 0 23 0;
#X connect 21 0 20 1;
#X connect 22 0 20 0;
#X connect 23 0 26 0;
#X connect 24 0 25 0;
#X connect 25 0 20 1;
#X connect 26 0 8 0;
#X connect 26 0 19 0;
#X connect 26 0 111 0;
#X connect 27 0 11 4;
#X connect 27 1 22 0;
#X connect 28 0 29 0;
#X connect 29 0 10 0;
#X connect 30 0 31 0;
#X connect 30 0 48 0;
#X connect 31 0 32 0;
#X connect 32 0 34 0;
#X connect 33 0 35 0;
#X connect 34 0 33 0;
#X connect 35 0 37 0;
#X connect 35 1 40 0;
#X connect 35 2 52 0;
#X connect 35 3 57 0;
#X connect 37 0 36 0;
#X connect 37 1 38 0;
#X connect 38 0 39 0;
#X connect 40 0 42 0;
#X connect 40 1 45 0;
#X connect 43 0 113 0;
#X connect 44 0 4 0;
#X connect 45 0 41 0;
#X connect 47 0 46 0;
#X connect 48 0 3 0;
#X connect 48 1 2 1;
#X connect 50 0 68 0;
#X connect 52 0 54 0;
#X connect 52 1 55 0;
#X connect 55 0 53 0;
#X connect 57 0 70 0;
#X connect 57 1 59 0;
#X connect 57 2 58 0;
#X connect 58 0 56 0;
#X connect 60 0 119 0;
#X connect 62 0 61 0;
#X connect 64 0 18 0;
#X connect 65 0 67 0;
#X connect 66 0 67 0;
#X connect 67 0 18 0;
#X connect 68 0 49 0;
#X connect 68 1 69 0;
#X connect 68 2 47 0;
#X connect 71 0 87 0;
#X connect 71 0 92 0;
#X connect 72 0 88 0;
#X connect 72 0 82 0;
#X connect 73 0 89 0;
#X connect 73 0 86 0;
#X connect 74 0 90 0;
#X connect 74 0 93 0;
#X connect 75 0 76 0;
#X connect 76 0 78 0;
#X connect 77 0 76 0;
#X connect 78 0 79 0;
#X connect 80 0 77 0;
#X connect 82 0 81 0;
#X connect 86 0 85 0;
#X connect 87 0 128 0;
#X connect 88 0 128 0;
#X connect 89 0 128 0;
#X connect 90 0 128 0;
#X connect 92 0 83 0;
#X connect 93 0 84 0;
#X connect 96 0 2 0;
#X connect 96 0 51 0;
#X connect 101 0 102 0;
#X connect 101 1 109 0;
#X connect 103 0 104 0;
#X connect 104 0 105 0;
#X connect 104 1 106 0;
#X connect 104 2 107 0;
#X connect 104 3 108 0;
#X connect 109 0 103 0;
#X connect 111 0 112 0;
#X connect 111 1 63 0;
#X connect 111 2 62 0;
#X connect 112 0 114 0;
#X connect 113 0 0 0;
#X connect 115 0 113 1;
#X connect 117 0 118 0;
#X connect 118 0 1 0;
#X connect 119 0 127 0;
#X connect 119 1 28 0;
#X connect 120 0 121 0;
#X connect 121 0 122 0;
#X connect 121 1 124 0;
#X connect 122 0 123 0;
#X connect 124 0 1 0;
#X connect 126 0 77 0;
#X connect 127 0 1 0;
#X connect 129 0 88 0;
#X connect 129 0 82 0;
