#N canvas 502 435 1481 712 10;
#X obj 473 528 bob~;
#X obj 471 432 *~;
#X obj 477 111 unpack 0 0;
#X obj 689 481 sig~;
#X obj 555 281 adsr 1 10 100 50 500;
#X obj 733 279 adsr 1 10 100 50 500;
#X obj 511 490 +~ 100;
#X obj 733 322 *~;
#X obj 544 320 *~;
#X obj 728 417 lop~ 5;
#X obj 645 377 *~;
#X obj 479 79 inlet;
#X obj 473 573 outlet~;
#X obj 376 152 + 12;
#X obj 430 346 brds~;
#X msg 235 147 shape \$1;
#X msg 150 148 colour \$1;
#X msg 151 257 timbre \$1;
#X obj 926 193 *;
#X obj 925 119 unpack f f f f;
#X obj 979 243 *;
#X obj 951 223 *;
#X obj 1005 264 *;
#X obj 1142 70 select 0 1 2 3 4;
#X msg 1245 157 0.3 1 0.3 1;
#X msg 1243 177 0.3 0.3 0.3 0.3;
#X msg 1242 225 1 0.8 0.2 0.5;
#X msg 1243 132 0.01 1 0.5 1;
#X msg 1244 200 0.01 1 0.2 0.3;
#X msg 447 319 pitch \$1;
#X obj 459 196 * 128;
#X obj 601 459 +~;
#X obj 726 360 lop~ 5;
#X obj 644 402 *~ 15000;
#X msg 1244 112 0.01 1 0 1;
#X obj 460 174 - 63;
#X obj 459 224 + 8252;
#X obj 150 112 / 48;
#X obj 149 66 r o_colour;
#X obj 235 66 r o_shape;
#X obj 235 106 / 100;
#X obj 349 67 r o_transpose;
#X obj 728 395 r f_cutoff;
#X obj 814 400 r f_reson;
#X obj 796 435 / 100;
#X obj 797 459 * 3.7;
#X obj 823 323 / 100;
#X obj 823 301 r f_env_amt;
#X obj 919 13 r f_env;
#X obj 919 45 i;
#X obj 138 208 r o_timbre;
#X obj 138 230 / 100;
#X obj 679 81 r e_attack;
#X obj 678 105 r e_decay;
#X obj 676 131 r e_sustain;
#X obj 675 160 r e_release;
#X connect 0 0 12 0;
#X connect 1 0 0 0;
#X connect 2 0 13 0;
#X connect 2 1 4 0;
#X connect 2 1 5 0;
#X connect 3 0 0 2;
#X connect 4 0 8 1;
#X connect 4 0 8 0;
#X connect 5 0 7 1;
#X connect 5 0 7 0;
#X connect 6 0 0 1;
#X connect 7 0 10 0;
#X connect 8 0 1 1;
#X connect 9 0 31 1;
#X connect 10 0 33 0;
#X connect 11 0 2 0;
#X connect 13 0 35 0;
#X connect 14 0 1 0;
#X connect 15 0 14 0;
#X connect 16 0 14 0;
#X connect 17 0 14 0;
#X connect 18 0 5 2;
#X connect 19 0 18 0;
#X connect 19 1 21 0;
#X connect 19 2 20 0;
#X connect 19 3 22 0;
#X connect 20 0 5 4;
#X connect 21 0 5 3;
#X connect 22 0 5 5;
#X connect 23 0 34 0;
#X connect 23 1 27 0;
#X connect 23 2 24 0;
#X connect 23 3 25 0;
#X connect 23 4 28 0;
#X connect 23 5 26 0;
#X connect 24 0 19 0;
#X connect 25 0 19 0;
#X connect 26 0 19 0;
#X connect 27 0 19 0;
#X connect 28 0 19 0;
#X connect 29 0 14 0;
#X connect 30 0 36 0;
#X connect 31 0 6 0;
#X connect 32 0 10 1;
#X connect 33 0 31 0;
#X connect 34 0 19 0;
#X connect 35 0 30 0;
#X connect 36 0 29 0;
#X connect 37 0 16 0;
#X connect 38 0 37 0;
#X connect 39 0 40 0;
#X connect 40 0 15 0;
#X connect 41 0 13 1;
#X connect 42 0 9 0;
#X connect 43 0 44 0;
#X connect 44 0 45 0;
#X connect 45 0 3 0;
#X connect 46 0 32 0;
#X connect 47 0 46 0;
#X connect 48 0 49 0;
#X connect 49 0 23 0;
#X connect 50 0 51 0;
#X connect 51 0 17 0;
#X connect 52 0 4 2;
#X connect 52 0 18 1;
#X connect 53 0 4 3;
#X connect 53 0 21 1;
#X connect 54 0 4 4;
#X connect 54 0 20 1;
#X connect 55 0 4 5;
#X connect 55 0 22 1;
